<svg width="32" height="32" viewBox="0 0 32 32" fill="none" xmlns="http://www.w3.org/2000/svg">
<path fill-rule="evenodd" clip-rule="evenodd" d="M26.7978 11.8906C25.8775 10.496 24.655 9.35762 23.2334 8.57171C21.8119 7.7858 20.2333 7.37549 18.6311 7.37549C17.0289 7.37549 15.4503 7.7858 14.0288 8.57171C12.6073 9.35762 11.3847 10.496 10.4645 11.8906L10.3689 12.0368H12.7326L12.7595 12.0065C13.513 11.1538 14.4228 10.4743 15.4328 10.0098C16.4428 9.54528 17.5315 9.30565 18.6319 9.30565C19.7324 9.30565 20.8211 9.54528 21.8311 10.0098C22.8411 10.4743 23.7509 11.1538 24.5044 12.0065L24.5296 12.0368H26.8933L26.7978 11.8906Z" fill="#E60012"/>
<path d="M9.43025 21.2964L9.38666 21.3445C8.6591 22.1306 7.81921 22.5477 6.95418 22.5477C5.147 22.5477 3.83437 21.1057 3.83437 19.1181C3.83437 17.1306 5.147 15.6832 6.95418 15.6832C7.81921 15.6832 8.6591 16.1003 9.38666 16.8882L9.43025 16.9363L10.592 15.4426L10.5618 15.4016C9.59454 14.1877 8.43446 13.5977 7.0095 13.5977C5.58455 13.5977 4.27024 14.1092 3.32139 15.0237C2.2971 16.0237 1.75562 17.4337 1.75562 19.1057C1.75562 20.7777 2.2971 22.1877 3.32139 23.1877C4.26353 24.1146 5.57114 24.6244 7.0095 24.6244C8.44787 24.6244 9.59454 24.0326 10.5618 22.8187L10.592 22.7795L9.43025 21.2964Z" fill="#004187"/>
<path d="M13.8185 13.7764H11.7666V24.4341H13.8185V13.7764Z" fill="#004187"/>
<path d="M21.8639 22.1143C21.4162 22.4356 20.8945 22.6205 20.3551 22.6491C19.6845 22.6491 19.3912 22.2765 19.3912 21.4477V15.7917H21.4833V13.7846H19.3845V10.4673L17.3728 11.6135V13.7846H15.636V15.7917H17.3728V21.8077C17.3728 23.4459 18.2864 24.5671 19.6493 24.5956C20.2889 24.6289 20.9233 24.4589 21.4716 24.1072L21.4917 24.0911L21.9862 22.0377L21.8639 22.1143Z" fill="#004187"/>
<path d="M25.6173 13.7764H23.5637V24.4341H25.6173V13.7764Z" fill="#004187"/>
<path d="M30.0681 12.4509C30.0681 12.6438 30.0143 12.8324 29.9135 12.9927C29.8126 13.1531 29.6693 13.2781 29.5017 13.3518C29.334 13.4256 29.1495 13.4448 28.9716 13.407C28.7937 13.3693 28.6303 13.2762 28.5021 13.1397C28.3739 13.0031 28.2867 12.8292 28.2515 12.64C28.2163 12.4507 28.2347 12.2546 28.3044 12.0765C28.3741 11.8983 28.4919 11.7462 28.6429 11.6393C28.7939 11.5323 28.9714 11.4755 29.1528 11.4758C29.2738 11.4734 29.394 11.497 29.5062 11.5451C29.6184 11.5933 29.7202 11.665 29.8057 11.7561C29.8912 11.8472 29.9585 11.9556 30.0036 12.075C30.0487 12.1944 30.0706 12.3222 30.0681 12.4509V12.4509ZM30.2441 12.4509C30.2445 12.2208 30.1806 11.9959 30.0606 11.8045C29.9407 11.6131 29.77 11.4639 29.5702 11.3757C29.3704 11.2875 29.1505 11.2643 28.9383 11.3091C28.7261 11.3539 28.5312 11.4646 28.3782 11.6273C28.2253 11.7899 28.1211 11.9972 28.079 12.2228C28.0369 12.4484 28.0587 12.6822 28.1416 12.8947C28.2246 13.1071 28.3649 13.2886 28.5449 13.4162C28.7249 13.5437 28.9365 13.6116 29.1528 13.6113C29.2969 13.6142 29.44 13.5862 29.5737 13.5289C29.7073 13.4716 29.8287 13.3862 29.9306 13.2779C30.0325 13.1695 30.1128 13.0404 30.1666 12.8983C30.2205 12.7562 30.2469 12.604 30.2441 12.4509V12.4509ZM29.6507 12.1763C29.6525 12.1229 29.6434 12.0698 29.6241 12.0205C29.6047 11.9711 29.5756 11.9268 29.5386 11.8906C29.5017 11.8544 29.4578 11.8271 29.4101 11.8106C29.3623 11.794 29.3117 11.7887 29.2618 11.7949H28.7387V13.0605H28.9399V12.5721H29.1696L29.4026 13.0605H29.6423L29.3976 12.5489C29.4743 12.5285 29.5418 12.48 29.5881 12.4118C29.6345 12.3436 29.6566 12.2602 29.6507 12.1763V12.1763ZM29.4462 12.1763C29.4462 12.3029 29.364 12.3546 29.2551 12.3546H28.9399V11.9981H29.2551C29.279 11.9945 29.3033 11.9964 29.3264 12.0038C29.3496 12.0111 29.3709 12.0237 29.3891 12.0406C29.4072 12.0575 29.4217 12.0784 29.4316 12.1018C29.4414 12.1253 29.4464 12.1507 29.4462 12.1763Z" fill="#004187"/>
</svg>
