<svg width="32" height="32" viewBox="0 0 32 32" fill="none" xmlns="http://www.w3.org/2000/svg">
<path d="M7.58945 7.00098H14.8278C15.8382 7.00098 16.4667 7.81813 16.231 8.82398L12.861 23.1797C12.6232 24.1821 11.6115 25 10.6004 25H3.36274C2.35374 25 1.72389 24.1821 1.9596 23.1797L5.33099 8.82398C5.56669 7.81813 6.57781 7.00098 7.58945 7.00098Z" fill="#E21836"/>
<path d="M14.225 7H22.5489C23.5591 7 23.1036 7.81715 22.866 8.823L19.4965 23.1788C19.2601 24.1811 19.3338 24.999 18.3215 24.999H9.99757C8.98522 24.999 8.35872 24.1811 8.59655 23.1788L11.9658 8.823C12.205 7.81715 13.214 7 14.225 7Z" fill="#00447C"/>
<path d="M22.219 7H29.4574C30.4692 7 31.0976 7.81715 30.86 8.823L27.4906 23.1788C27.2527 24.1811 26.2404 24.999 25.2287 24.999H17.9937C16.9814 24.999 16.3535 24.1811 16.5906 23.1788L19.9606 8.823C20.1963 7.81715 21.2067 7 22.219 7Z" fill="#007B84"/>
<path d="M9.47937 11.6005C8.73501 11.6081 8.51518 11.6005 8.44496 11.5841C8.41797 11.7114 7.91567 14.0103 7.91426 14.0123C7.80611 14.4774 7.72743 14.8089 7.46014 15.023C7.30841 15.1475 7.13127 15.2075 6.92591 15.2075C6.59581 15.2075 6.4035 15.0449 6.37121 14.7364L6.36504 14.6305C6.36504 14.6305 6.4656 14.0075 6.4656 14.004C6.4656 14.004 6.99277 11.909 7.08716 11.6321C7.0921 11.6163 7.09352 11.6081 7.09475 11.6005C6.06864 11.6095 5.88674 11.6005 5.87421 11.5841C5.86733 11.6067 5.84193 11.7366 5.84193 11.7366L5.30364 14.0979L5.25742 14.2981L5.16797 14.9532C5.16797 15.1475 5.20643 15.3061 5.283 15.4402C5.52824 15.8654 6.22778 15.9291 6.62351 15.9291C7.13339 15.9291 7.61169 15.8216 7.93491 15.6254C8.49595 15.2964 8.64274 14.7823 8.77365 14.3254L8.83434 14.091C8.83434 14.091 9.37739 11.9151 9.46966 11.6321C9.47319 11.6163 9.4746 11.6081 9.47937 11.6005ZM11.3271 13.3559C11.1961 13.3559 10.9569 13.3874 10.742 13.4919C10.664 13.5316 10.5903 13.5775 10.5125 13.6232L10.5827 13.3716L10.5442 13.3293C10.0885 13.4208 9.98655 13.4331 9.56559 13.4919L9.5303 13.5152C9.48143 13.9173 9.43803 14.2196 9.25684 15.0099C9.18785 15.3012 9.11622 15.5953 9.04442 15.8859L9.06382 15.9229C9.49519 15.9003 9.6261 15.9003 10.001 15.9064L10.0314 15.8737C10.079 15.6316 10.0852 15.5748 10.1907 15.0845C10.2403 14.8521 10.3436 14.3412 10.3946 14.1594C10.4883 14.1163 10.5808 14.0739 10.669 14.0739C10.8791 14.0739 10.8535 14.2558 10.8454 14.3283C10.8364 14.45 10.7598 14.8473 10.6813 15.1885L10.6289 15.4087C10.5924 15.5713 10.5524 15.7294 10.5158 15.8906L10.5317 15.9229C10.9569 15.9003 11.0866 15.9003 11.4497 15.9064L11.4924 15.8737C11.558 15.4955 11.5772 15.3944 11.6937 14.8438L11.7522 14.5909C11.866 14.0958 11.9232 13.8448 11.8371 13.6403C11.7461 13.4112 11.5277 13.3559 11.3271 13.3559ZM13.3911 13.8742C13.1651 13.9172 13.021 13.946 12.8777 13.9645C12.7357 13.9871 12.5972 14.0076 12.3788 14.0377L12.3615 14.0533L12.3456 14.0657C12.3229 14.2271 12.307 14.3666 12.2768 14.5306C12.2512 14.7003 12.2119 14.893 12.1478 15.1699C12.0983 15.3819 12.0727 15.4558 12.0445 15.5304C12.0169 15.6049 11.9866 15.6774 11.9308 15.8859L11.9439 15.9052L11.9548 15.9228C12.159 15.9132 12.2925 15.9064 12.4298 15.9052C12.5669 15.9003 12.7089 15.9052 12.9287 15.9064L12.9479 15.8908L12.9686 15.8736C13.0003 15.6856 13.0051 15.635 13.0245 15.5433C13.0437 15.4449 13.0769 15.3087 13.1582 14.945C13.1967 14.7741 13.2396 14.6038 13.2795 14.4295C13.3209 14.2558 13.3643 14.0848 13.4056 13.9139L13.3994 13.8933L13.3911 13.8742ZM13.3959 13.1753C13.1906 13.0551 12.8301 13.0932 12.5876 13.2594C12.3457 13.4222 12.3181 13.6532 12.5228 13.7751C12.7246 13.892 13.0865 13.8572 13.327 13.6896C13.5683 13.5233 13.5985 13.2944 13.3959 13.1753ZM14.6379 15.9605C15.0534 15.9605 15.4793 15.8469 15.7999 15.5098C16.0465 15.2363 16.1596 14.8295 16.1988 14.662C16.3263 14.1067 16.227 13.8475 16.1023 13.6896C15.9128 13.4489 15.5779 13.3717 15.2305 13.3717C15.0217 13.3717 14.5241 13.3921 14.1355 13.7477C13.8563 14.0041 13.7274 14.3521 13.6496 14.6858C13.5711 15.0257 13.4807 15.6377 14.0479 15.8655C14.223 15.94 14.4753 15.9605 14.6379 15.9605ZM14.6055 14.7112C14.7013 14.2907 14.8144 13.9378 15.103 13.9378C15.3292 13.9378 15.3456 14.2004 15.245 14.6222C15.227 14.7159 15.1444 15.0641 15.0328 15.2123C14.9548 15.3218 14.8625 15.3881 14.7605 15.3881C14.7302 15.3881 14.5497 15.3881 14.5469 15.1222C14.5455 14.9909 14.5725 14.8568 14.6055 14.7112ZM17.2374 15.9064L17.2699 15.8737C17.3159 15.6316 17.3235 15.5747 17.4255 15.0846C17.4765 14.8521 17.582 14.3413 17.6316 14.1594C17.7254 14.1162 17.8163 14.0738 17.9073 14.0738C18.116 14.0738 18.0906 14.2557 18.0823 14.3282C18.0748 14.45 17.9982 14.8472 17.9183 15.1884L17.8687 15.4086C17.8308 15.5714 17.7895 15.7293 17.753 15.8907L17.7688 15.9229C18.1954 15.9003 18.3202 15.9003 18.6854 15.9064L18.7295 15.8737C18.7935 15.4954 18.8108 15.3942 18.9308 14.8439L18.988 14.5907C19.1023 14.0957 19.1602 13.8448 19.0755 13.6404C18.9818 13.4112 18.762 13.3559 18.5642 13.3559C18.4331 13.3559 18.1926 13.3873 17.979 13.4919C17.9026 13.5317 17.826 13.5774 17.7508 13.6232L17.8163 13.3717L17.7812 13.3291C17.3256 13.4209 17.2216 13.4331 16.8011 13.4919L16.7688 13.5152C16.7178 13.9173 16.6764 14.2195 16.4952 15.01C16.4262 15.3013 16.3546 15.5954 16.2829 15.886L16.3022 15.9229C16.7343 15.9003 16.8632 15.9003 17.2374 15.9064ZM20.3718 15.9228C20.3986 15.7929 20.5579 15.023 20.5593 15.023C20.5593 15.023 20.695 14.4581 20.7033 14.4377C20.7033 14.4377 20.746 14.3788 20.7887 14.3556H20.8515C21.4441 14.3556 22.1133 14.3556 22.6378 13.9727C22.9947 13.7101 23.2388 13.3224 23.3476 12.8512C23.3758 12.7356 23.3967 12.5982 23.3967 12.4608C23.3967 12.2803 23.3601 12.1018 23.2546 11.9622C22.9872 11.5909 22.4545 11.5841 21.8397 11.5813C21.8377 11.5813 21.5366 11.5841 21.5366 11.5841C20.7495 11.5938 20.4339 11.591 20.3042 11.5752C20.2933 11.6321 20.2726 11.7333 20.2726 11.7333C20.2726 11.7333 19.9907 13.0297 19.9907 13.0318C19.9907 13.0318 19.316 15.7882 19.2843 15.9181C19.9715 15.9099 20.2532 15.9099 20.3718 15.9228ZM20.8942 13.6198C20.8942 13.6198 21.1939 12.326 21.1925 12.3309L21.2022 12.2646L21.2065 12.214L21.3263 12.2262C21.3263 12.2262 21.9445 12.2789 21.9589 12.2803C22.2029 12.374 22.3035 12.6154 22.2333 12.9305C22.1692 13.2184 21.981 13.4605 21.7391 13.5775C21.5399 13.6765 21.2959 13.6848 21.0445 13.6848H20.8818L20.8942 13.6198ZM22.7605 14.7351C22.6813 15.0702 22.5903 15.6822 23.1547 15.9003C23.3346 15.9763 23.4959 15.9988 23.6598 15.9906C23.8329 15.9813 23.9932 15.8952 24.1418 15.7713C24.1284 15.8222 24.115 15.8732 24.1016 15.9243L24.1271 15.957C24.5331 15.94 24.6591 15.94 25.0989 15.9434L25.1388 15.9132C25.203 15.5386 25.2635 15.1749 25.4304 14.4582C25.5118 14.1149 25.5929 13.775 25.6764 13.4331L25.6633 13.3955C25.2092 13.479 25.0878 13.4968 24.651 13.5583L24.6178 13.585C24.6134 13.6199 24.6088 13.6533 24.6046 13.6867C24.5366 13.5779 24.4382 13.4849 24.2863 13.427C24.092 13.3512 23.6358 13.4488 23.2436 13.8032C22.968 14.0561 22.8357 14.4027 22.7605 14.7351ZM23.7143 14.7556C23.8115 14.3427 23.9232 13.9933 24.2125 13.9933C24.3955 13.9933 24.4918 14.1608 24.4722 14.4465C24.4567 14.5177 24.4399 14.5928 24.42 14.6777C24.3911 14.8004 24.3597 14.9221 24.3292 15.0439C24.2981 15.1273 24.2619 15.2059 24.2222 15.2582C24.1478 15.3629 23.9706 15.4278 23.8687 15.4278C23.8397 15.4278 23.6612 15.4278 23.655 15.1666C23.6536 15.0366 23.6806 14.9027 23.7143 14.7556ZM28.695 13.3921L28.6599 13.3524C28.2105 13.4427 28.1292 13.4571 27.7163 13.5124L27.686 13.5425C27.6846 13.5474 27.6833 13.5549 27.6812 13.5617L27.6798 13.5549C27.3725 14.2584 27.3815 14.1067 27.1313 14.6605C27.1299 14.6353 27.1299 14.6196 27.1285 14.5928L27.0658 13.3921L27.0265 13.3524C26.5558 13.4427 26.5447 13.4571 26.1099 13.5124L26.0761 13.5425C26.0713 13.5568 26.0713 13.5726 26.0685 13.5897L26.0713 13.5959C26.1256 13.8714 26.1126 13.81 26.1671 14.2448C26.1925 14.4582 26.2264 14.6728 26.2518 14.8836C26.2947 15.2363 26.3187 15.4099 26.3711 15.9482C26.0775 16.4289 26.008 16.6108 25.7253 17.0327L25.7273 17.0369L25.5283 17.3492C25.5055 17.3821 25.4849 17.4047 25.4559 17.4143C25.4242 17.4299 25.3829 17.4327 25.3255 17.4327H25.2153L25.0514 17.9736L25.6136 17.9832C25.9437 17.9818 26.1512 17.8287 26.2629 17.6228L26.6165 17.0217H26.6108L26.648 16.9793C26.8859 16.4713 28.695 13.3921 28.695 13.3921ZM22.7605 20.4962H22.522L23.4048 17.5989H23.6977L23.7907 17.3004L23.7997 17.6323C23.7887 17.8375 23.9514 18.0194 24.3787 17.9893H24.8729L25.043 17.4314H24.857C24.7501 17.4314 24.7005 17.4046 24.7067 17.3472L24.6977 17.0095H23.7826V17.0112C23.4867 17.0174 22.6031 17.0394 22.4242 17.0867C22.2078 17.142 21.9796 17.3048 21.9796 17.3048L22.0693 17.006H21.2132L21.0349 17.5989L20.1402 20.5405H19.9666L19.7963 21.0944H21.5013L21.4442 21.279H22.2843L22.3401 21.0944H22.5758L22.7605 20.4962ZM22.061 18.1876C21.9239 18.2252 21.6688 18.3394 21.6688 18.3394L21.8956 17.5989H22.5758L22.4117 18.1384C22.4117 18.1384 22.2016 18.1507 22.061 18.1876ZM22.074 19.2455C22.074 19.2455 21.8604 19.2721 21.7197 19.3036C21.5813 19.3452 21.3215 19.4765 21.3215 19.4765L21.5558 18.7059H22.2395L22.074 19.2455ZM21.6929 20.503H21.0107L21.2085 19.8527H21.8886L21.6929 20.503ZM23.3359 18.7059H24.3194L24.178 19.16H23.1816L23.032 19.6565H23.9039L23.2437 20.5788C23.1974 20.6466 23.156 20.6706 23.1099 20.6896C23.0637 20.7129 23.003 20.7402 22.9328 20.7402H22.6909L22.5247 21.2839H23.1574C23.4863 21.2839 23.6805 21.1355 23.8239 20.9407L24.2767 20.3259L24.3739 20.9501C24.3945 21.0671 24.4792 21.1355 24.5365 21.1621C24.5999 21.1936 24.6653 21.2477 24.7578 21.2558C24.8569 21.26 24.9286 21.2633 24.9762 21.2633H25.2871L25.4737 20.6548H25.3511C25.2807 20.6548 25.1595 20.6431 25.1389 20.6212C25.1182 20.5946 25.1182 20.5536 25.1071 20.4913L25.0085 19.8657H24.6046L24.7818 19.6565H25.7763L25.9293 19.16H25.0085L25.1519 18.7059H26.0699L26.2401 18.1459H23.5034L23.3359 18.7059ZM15.03 20.6295L15.2595 19.8718H16.2029L16.3753 19.3083H15.431L15.5751 18.842H16.4979L16.6688 18.2964H14.3601L14.1926 18.842H14.7172L14.5773 19.3083H14.0513L13.877 19.8815H14.4014L14.0954 20.8838C14.0542 21.0165 14.1148 21.0671 14.1533 21.1287C14.1926 21.1888 14.2325 21.2285 14.3221 21.2511C14.4146 21.2716 14.4779 21.2838 14.564 21.2838H15.6275L15.817 20.6596L15.3456 20.7238C15.2546 20.7238 15.0025 20.713 15.03 20.6295ZM15.1382 17.0026L14.8991 17.4313C14.848 17.5249 14.8019 17.5831 14.7605 17.6098C14.7239 17.6324 14.6516 17.6419 14.5468 17.6419H14.4221L14.2553 18.1903H14.6696C14.8688 18.1903 15.0217 18.1178 15.0948 18.0816C15.1733 18.0399 15.1939 18.0638 15.2546 18.0056L15.3945 17.8854H16.6881L16.8598 17.3144H15.9129L16.0782 17.0026H15.1382ZM17.0479 20.6405C17.0259 20.609 17.0418 20.5535 17.0754 20.4379L17.429 19.2768H18.6868C18.8701 19.2742 19.0024 19.2721 19.0885 19.266C19.181 19.2563 19.2815 19.2236 19.3911 19.1648C19.5042 19.1032 19.562 19.0382 19.6109 18.9636C19.6654 18.8893 19.7529 18.7265 19.8281 18.4754L20.2725 17.006L18.9673 17.0136C18.9673 17.0136 18.5654 17.0724 18.3884 17.1373C18.2099 17.2098 17.9548 17.4122 17.9548 17.4122L18.0726 17.0094H17.2663L16.1376 20.7238C16.0975 20.8681 16.0707 20.9727 16.0645 21.0356C16.0624 21.1033 16.1506 21.1704 16.2078 21.221C16.2753 21.2716 16.3752 21.2633 16.471 21.2716C16.5717 21.2791 16.715 21.2838 16.9128 21.2838H17.5324L17.7226 20.6466L17.1679 20.6986C17.1086 20.6986 17.0657 20.6671 17.0479 20.6405ZM17.6571 18.4926H18.9782L18.8943 18.7538C18.8824 18.7599 18.8542 18.7408 18.7198 18.7566H17.5758L17.6571 18.4926ZM17.9218 17.6166H19.254L19.1582 17.9312C19.1582 17.9312 18.5303 17.9251 18.4297 17.9434C17.9872 18.0194 17.7288 18.254 17.7288 18.254L17.9218 17.6166ZM18.9238 19.6284C18.9129 19.6674 18.8956 19.6912 18.8714 19.7091C18.8446 19.7262 18.8012 19.7324 18.7365 19.7324H18.5482L18.5593 19.4143H17.7763L17.7446 20.9693C17.7433 21.0815 17.7543 21.1464 17.837 21.1984C17.9198 21.2634 18.1747 21.2716 18.5179 21.2716H19.0085L19.1856 20.6896L18.7585 20.7128L18.6165 20.7211C18.5971 20.7128 18.5786 20.7053 18.5579 20.6848C18.5399 20.6671 18.5096 20.678 18.5145 20.5658L18.5179 20.1672L18.9658 20.1488C19.2077 20.1488 19.3111 20.0707 19.3993 19.9963C19.4835 19.9251 19.511 19.8432 19.5427 19.7324L19.6179 19.3795H19.0023L18.9238 19.6284Z" fill="#FEFEFE"/>
</svg>
