<svg width="32" height="32" viewBox="0 0 32 32" fill="none" xmlns="http://www.w3.org/2000/svg">
<path d="M27.3438 15.6016C27.3438 21.6745 22.2607 26.6001 15.9999 26.6001C9.7353 26.6001 4.65625 21.6745 4.65625 15.6016C4.65625 9.52494 9.7353 4.6001 15.9999 4.6001C22.2607 4.6001 27.3438 9.52494 27.3438 15.6016Z" fill="#E83E44"/>
<path d="M7.2279 10.1049C8.35375 8.98863 9.06322 8.91763 9.44958 9.05799C9.83552 9.19115 10.0849 9.58474 10.1234 10.1088C10.133 10.1874 10.1351 10.2645 10.1351 10.3412C10.135 11.1838 9.73067 12.0186 8.98767 12.7865C9.39506 12.7294 9.79827 12.7886 10.1556 12.9955C10.5341 13.2117 11.0254 13.6693 11.2396 14.6263C11.3379 15.0607 11.3106 15.5553 11.2855 15.8099C11.2566 16.1376 11.2007 16.4259 11.1195 16.6898C10.9631 17.2012 10.6578 17.6508 10.2426 17.9945C9.93004 18.249 9.60933 18.3744 9.26794 18.5092L8.79236 18.7113L8.40271 18.8783L8.00037 19.0521L7.89685 19.1029C7.50678 19.2978 7.06645 19.5186 6.6029 19.3353C6.16664 19.1648 5.98507 18.7041 5.92908 18.5131C5.44432 16.8792 5.30279 15.0363 5.52283 13.1898C5.65408 12.1039 6.36455 11.0608 6.55212 10.8392L7.2279 10.1049ZM8.18201 10.5844C8.00018 10.5116 7.66407 10.68 7.30701 11.017L7.23376 11.0941L6.57556 11.7748C6.46352 11.9135 6.3975 12.0844 6.37634 12.225C6.17743 14.0958 6.35906 16.0997 6.89197 18.0072C6.9248 18.0894 6.93868 18.1196 6.98669 18.1439C7.03506 18.1663 7.07947 18.1478 7.07947 18.1478L7.86365 17.7748L7.88513 17.766C8.49727 17.4937 9.47845 16.8245 9.18494 15.4369C9.0421 14.7749 8.7672 14.3717 8.36365 14.2357C7.84809 14.0635 7.20738 14.3716 6.78454 14.7162C6.74015 14.7527 6.6893 14.7614 6.6449 14.7416C6.59482 14.7228 6.56401 14.6717 6.56775 14.6176C6.56775 14.6176 6.54685 14.3891 6.54626 14.3754C6.53465 14.2435 6.62575 14.1696 6.62732 14.1683C7.82851 13.0739 8.40222 12.0582 8.37146 11.0638C8.36957 10.8803 8.33258 10.6461 8.18201 10.5844ZM15.5033 6.08728C16.4532 5.92641 17.4332 5.98662 18.3754 6.27869C18.4801 6.31284 18.8389 6.46665 19.059 7.19764C19.1271 7.49767 18.8184 7.41683 18.806 7.41346C18.0549 7.10896 17.2184 7.01121 16.3959 7.12732C15.3163 7.28453 14.42 7.79001 13.8734 8.55408C13.3288 9.30529 13.1512 10.2762 13.3656 11.2885C13.8676 13.6259 15.8916 14.8182 18.5238 14.3275C19.5493 14.1318 20.3697 13.7099 20.9086 13.1049C20.9243 13.086 21.0073 12.9985 21.0863 12.9984C21.1945 12.9984 21.2627 13.0433 21.3051 13.1928C21.4615 13.8099 21.4437 14.0062 21.4437 14.0062C21.4437 14.2488 21.3813 14.5942 21.059 14.8656C20.3369 15.4696 19.4042 15.8954 18.2748 16.1332C16.363 16.5227 14.5748 16.2555 13.2308 15.3773C12.0838 14.6263 11.3451 13.4778 11.0863 12.0599C10.8315 10.6479 11.1645 9.25209 12.0238 8.13318C12.8426 7.0692 14.0762 6.34218 15.5033 6.08728Z" fill="white"/>
</svg>
