<svg width="32" height="32" viewBox="0 0 32 32" fill="none" xmlns="http://www.w3.org/2000/svg">
<g clip-path="url(#clip0_107_1233)">
<path d="M25.4121 10.4263L22.5599 8.32132C22.5599 8.32132 20.203 6.58423 20.2052 6.58868C19.0865 5.75693 17.5195 5.99107 16.6805 6.18507L7.42805 8.36592C6.17916 8.66026 5.16724 9.9826 5.16724 11.3205V20.7642C5.16724 22.0999 6.17916 23.4222 7.42805 23.7188L16.6784 25.9019C17.9273 26.1962 19.7867 25.8104 20.8328 25.0389L25.4142 21.6584C26.614 20.7776 26.836 20.0684 26.836 18.7974V13.2918C26.836 11.9828 26.6268 11.3161 25.4142 10.4308L25.4121 10.4263Z" fill="#E0007C"/>
<path d="M21.1017 9.91335V10.2211L18.7107 8.94111C18.4545 8.80509 18.0169 8.73373 17.7329 8.78056L15.0387 9.23769C14.7249 9.2912 14.4666 9.60339 14.4666 9.94011V17.8429C14.4666 19.4618 13.4056 19.8565 12.2357 19.7405L10.5705 19.5733C9.29598 19.444 8.82204 18.465 8.82204 17.3189V10.899C8.82204 10.5667 8.56586 10.337 8.2499 10.3905L6.76404 10.6403C6.44808 10.6916 6.19189 11.0082 6.19189 11.3405V17.6087C6.19189 20.2445 7.80158 21.6895 10.6858 22.1444L12.7758 22.4789C15.835 22.9583 18.2474 21.4397 18.2474 17.8027V12.4376L21.1017 13.2025V16.3399C21.1017 16.6744 21.3601 16.9219 21.6782 16.8907L22.7093 16.8082C23.0274 16.7792 23.2857 16.4849 23.2857 16.1504V13.7867L24.7886 14.1881C24.9744 14.2371 25.1238 14.1167 25.1238 13.916V12.7319C25.1238 12.5313 24.985 12.2949 24.8164 12.2012L23.2878 11.3851V10.977C23.2878 9.36256 22.5897 8.67352 22.135 8.27214C22.0987 8.24092 22.1243 8.20747 22.1628 8.22977C22.1542 8.22308 19.8059 6.49268 19.8102 6.49491C19.8102 6.49491 19.808 6.49268 19.8059 6.49268C20.5552 7.04569 21.1039 8.07368 21.1039 9.90889L21.1017 9.91335Z" fill="white"/>
</g>
<defs>
<clipPath id="clip0_107_1233">
<rect width="21.6667" height="20" fill="white" transform="translate(5.16724 6)"/>
</clipPath>
</defs>
</svg>
