<svg width="32" height="32" viewBox="0 0 32 32" fill="none" xmlns="http://www.w3.org/2000/svg">
<g clip-path="url(#clip0_72_6120)">
<path d="M28.7456 12.7867H29.4929C29.5409 12.7867 29.5808 12.7417 29.5808 12.6877V11.099C29.5808 11.045 29.5409 11 29.4929 11H28.4459C27.2311 11 26.5877 11.4365 26.2201 12.3636L23.9383 18.6598C23.7984 19.0378 23.6026 19.2133 23.207 19.2133V11.099C23.207 11.045 23.167 11 23.1191 11H21.4407C21.3927 11 21.3528 11.045 21.3528 11.099V20.8245C21.3528 20.919 21.4207 21 21.5086 21H23.3908C24.6056 21 25.1571 20.5635 25.5248 19.6364L27.7786 13.4167C27.9584 12.9757 28.2182 12.7822 28.7456 12.7822V12.7867Z" fill="#D7000F"/>
<path d="M8.24948 16C8.92483 15.685 9.48029 14.9739 9.48029 13.8038C9.48029 12.0576 8.14958 11 6.54713 11H1.58792C1.53996 11 1.5 11.045 1.5 11.099V12.6832C1.5 12.7372 1.53996 12.7822 1.58792 12.7822H6.20346C6.94674 12.7822 7.45025 13.2952 7.45025 13.9253C7.45025 14.5554 6.94674 15.0684 6.20346 15.0684H3.46211V13.8893C3.46211 13.8353 3.42214 13.7903 3.37419 13.7903H1.58792C1.53996 13.7903 1.5 13.8353 1.5 13.8893V20.901C1.5 20.955 1.53996 21 1.58792 21H6.4712C8.29744 21 9.60817 20.0414 9.60817 18.0837C9.60817 17.1251 9.10466 16.3285 8.24948 16ZM6.29537 19.2583H3.46211V16.9136H6.29937C7.06263 16.9136 7.57813 17.4401 7.57813 18.0837C7.57813 18.7273 7.06263 19.2583 6.29937 19.2583H6.29537Z" fill="#D7000F"/>
<path d="M30.4841 20.8876L27.6069 16.7472C27.6069 16.7472 27.5869 16.7382 27.5789 16.7472L26.8077 18.8804C26.8077 18.8804 26.8037 18.9074 26.8077 18.9209L28.0665 20.8201C28.1544 20.9551 28.2543 21.0046 28.4061 21.0046H30.4322C30.4921 21.0046 30.5161 20.9416 30.4841 20.8876Z" fill="#D7000F"/>
<path d="M11.0787 13.7947H12.7571C12.8051 13.7947 12.845 13.8397 12.845 13.8937V20.9054C12.845 20.9594 12.8051 21.0044 12.7571 21.0044H11.0747C11.0268 21.0044 10.9868 20.9594 10.9868 20.9054V13.8937C10.9868 13.8397 11.0268 13.7947 11.0747 13.7947H11.0787Z" fill="#D7000F"/>
<path d="M19.6623 11H17.984C17.936 11 17.8961 11.045 17.8961 11.099V19.2133C17.5044 19.2133 17.3046 19.0333 17.1648 18.6598L14.883 12.3636C14.5153 11.4365 13.8719 11 12.6611 11H11.0786C11.0267 11 10.9907 11.045 10.9907 11.099V12.6832C10.9907 12.7372 11.0307 12.7822 11.0786 12.7822H12.3574C12.8849 12.7822 13.1446 12.9757 13.3285 13.4167L15.5783 19.6364C15.9459 20.5635 16.5014 21 17.7162 21H19.5984C19.6823 21 19.7543 20.919 19.7543 20.8245V11.099C19.7543 11.045 19.7143 11 19.6663 11H19.6623Z" fill="#D7000F"/>
</g>
<defs>
<clipPath id="clip0_72_6120">
<rect width="29" height="10" fill="white" transform="translate(1.5 11)"/>
</clipPath>
</defs>
</svg>
