<svg width="32" height="32" viewBox="0 0 32 32" fill="none" xmlns="http://www.w3.org/2000/svg">
<path d="M29.2686 12.9697C30.1541 12.9697 30.8748 13.6943 30.875 14.585V19.0303H30.3398V14.585C30.3397 14.0268 29.9184 13.5685 29.3779 13.5137L29.2686 13.5088H2.73242C2.14059 13.5088 1.66034 13.9898 1.66016 14.585V19.0303H1.125L1.12598 14.585C1.12616 13.6943 1.84639 12.9697 2.73242 12.9697H29.2686ZM7.03809 15.7666C7.07591 15.7667 7.10248 15.7903 7.10254 15.8398V17.4609C7.1026 17.5065 7.12101 17.5292 7.1748 17.5293H7.87402C7.91941 17.5292 7.95009 17.5066 7.9502 17.4609V15.8398C7.95024 15.7902 7.96961 15.7666 8.01465 15.7666H8.39648C8.43799 15.7666 8.46478 15.7902 8.46484 15.8398V18.2861C8.46484 18.3474 8.44631 18.4055 8.41992 18.4629L8.16016 18.8887C8.1373 18.928 8.10299 18.9502 8.06445 18.9502H8.01465C7.96968 18.9502 7.95029 18.9239 7.9502 18.8818V17.7988C7.9502 17.7528 7.92369 17.7342 7.88184 17.7451L7.14746 17.9521C7.11315 17.9594 7.07187 17.96 7.03809 17.96C6.74388 17.96 6.59082 17.7212 6.59082 17.5176V15.8398C6.59086 15.7902 6.61018 15.7666 6.65625 15.7666H7.03809ZM9.42773 15.7666C9.46219 15.7666 9.4892 15.7902 9.48926 15.8398V17.4609C9.48934 17.5066 9.51213 17.5264 9.56543 17.5264H10.2637C10.3093 17.5264 10.3397 17.5066 10.3398 17.4609V15.8398C10.3399 15.7902 10.3558 15.7666 10.4014 15.7666H10.7832C10.8247 15.7666 10.8515 15.7902 10.8516 15.8398V17.8643C10.8515 17.9056 10.8247 17.9209 10.7832 17.9209H10.4014C10.3558 17.9209 10.3399 17.9055 10.3398 17.8604V17.7988C10.3398 17.7492 10.3101 17.7299 10.2686 17.7451L9.53418 17.9434C9.49575 17.955 9.45381 17.9551 9.41602 17.9551C9.18269 17.9551 8.97656 17.7636 8.97656 17.5146V15.8398C8.9766 15.7902 8.99592 15.7666 9.04199 15.7666H9.42773ZM15.4863 14.833C15.5324 14.833 15.5508 14.8646 15.5508 14.9072V17.8643C15.5507 17.9056 15.5323 17.9209 15.4863 17.9209H15.0967C15.0593 17.9209 15.0401 17.9056 15.04 17.8604V17.7988C15.04 17.7492 15.0172 17.7298 14.9678 17.7451L14.2305 17.9434C14.1889 17.9551 14.1538 17.9551 14.1152 17.9551C13.9165 17.963 13.6729 17.779 13.6729 17.5146V16.5469C13.6729 16.3393 13.7608 16.1817 13.9443 16.082L14.3486 15.8438C14.4328 15.7907 14.5173 15.7666 14.6162 15.7666H14.9678C15.0171 15.7665 15.04 15.7477 15.04 15.7012V14.9072C15.04 14.8646 15.0592 14.833 15.0967 14.833H15.4863ZM17.7998 15.7666C17.8418 15.7666 17.8652 15.7902 17.8652 15.8398V17.8643C17.8651 17.9056 17.8418 17.9209 17.7998 17.9209H17.4102C17.3687 17.9209 17.3536 17.9056 17.3535 17.8604V17.7988C17.3535 17.7492 17.3263 17.7297 17.2773 17.7451L16.5439 17.9434C16.502 17.955 16.4676 17.9551 16.4297 17.9551C16.1892 17.9551 15.9863 17.7602 15.9863 17.5146V16.5469C15.9863 16.3394 16.0742 16.1817 16.2529 16.082L16.6631 15.8438C16.7462 15.7907 16.8299 15.7666 16.9258 15.7666H17.7998ZM24.1328 15.7666C24.1743 15.7666 24.1972 15.7902 24.1973 15.8398V17.8643C24.1972 17.9056 24.1743 17.9209 24.1328 17.9209H23.7432C23.7017 17.9209 23.6866 17.9056 23.6865 17.8604V17.7988C23.6865 17.7491 23.659 17.7295 23.6094 17.7451L22.876 17.9434C22.8345 17.955 22.8002 17.9551 22.7627 17.9551C22.5218 17.9551 22.3193 17.7602 22.3193 17.5146V16.5469C22.3193 16.3393 22.4078 16.1817 22.5869 16.082L22.9951 15.8438C23.0793 15.7907 23.163 15.7666 23.2578 15.7666H24.1328ZM28.0049 14.833C28.0507 14.8332 28.0693 14.8647 28.0693 14.9072V17.8643C28.0693 17.9055 28.0506 17.9208 28.0049 17.9209H27.6152C27.5773 17.9209 27.5587 17.9056 27.5586 17.8604V17.7988C27.5586 17.7491 27.535 17.7295 27.4854 17.7451L26.749 17.9434C26.7068 17.9551 26.6714 17.9551 26.6338 17.9551C26.4347 17.9629 26.1914 17.779 26.1914 17.5146V16.5469C26.1914 16.3393 26.2793 16.1817 26.4629 16.082L26.8662 15.8438C26.9504 15.7907 27.0345 15.7666 27.1338 15.7666H27.4854C27.535 15.7666 27.5586 15.7479 27.5586 15.7012V14.9072C27.5586 14.8646 27.5772 14.833 27.6152 14.833H28.0049ZM4.28125 15.0986C4.32259 15.0988 4.34951 15.1217 4.34961 15.1641V16.208C4.34961 16.2578 4.37618 16.2822 4.42188 16.2822H5.46387C5.51311 16.2822 5.54883 16.2578 5.54883 16.208V15.1641C5.54888 15.1216 5.56378 15.0986 5.60938 15.0986H6.00684C6.0522 15.0987 6.07998 15.1217 6.08008 15.1641V17.8643C6.07998 17.9055 6.0522 17.9208 6.00684 17.9209H5.60938C5.56376 17.9209 5.54887 17.9055 5.54883 17.8604V16.7734C5.54883 16.7238 5.51311 16.6963 5.46387 16.6963H4.42188C4.37618 16.6963 4.34961 16.7238 4.34961 16.7734V17.8604C4.34953 17.9054 4.32261 17.9208 4.28125 17.9209H3.87598C3.83759 17.9209 3.82232 17.9055 3.82227 17.8643V15.1641C3.82232 15.1216 3.83759 15.0987 3.87598 15.0986H4.28125ZM12.8828 15.7422C13.0888 15.7858 13.2383 15.9736 13.2383 16.1816V17.8643C13.2382 17.9055 13.2107 17.9208 13.1699 17.9209H12.7881C12.7426 17.9209 12.7266 17.9056 12.7266 17.8604V16.2393C12.7265 16.2019 12.7095 16.1769 12.6816 16.167L12.6504 16.1621H11.9512C11.8979 16.1623 11.8751 16.1895 11.875 16.2393V17.8604C11.8749 17.9055 11.8477 17.9208 11.8145 17.9209H11.4277C11.3828 17.9209 11.3634 17.9056 11.3633 17.8643V15.8398C11.3633 15.7902 11.3827 15.7666 11.4277 15.7666H11.8145C11.8478 15.7667 11.875 15.7903 11.875 15.8398V15.9053C11.875 15.9467 11.8936 15.9665 11.9512 15.9512L12.6807 15.751C12.7186 15.7436 12.753 15.7324 12.792 15.7324L12.8828 15.7422ZM18.8232 15.7666C18.8607 15.7666 18.8886 15.7902 18.8887 15.8398V17.8643C18.8886 17.9056 18.8607 17.9209 18.8232 17.9209H18.4414C18.3918 17.9209 18.376 17.9056 18.376 17.8643V15.8398C18.376 15.7902 18.3918 15.7666 18.4414 15.7666H18.8232ZM21.8955 15.0986C21.9402 15.0988 21.9628 15.1217 21.9629 15.168V15.4482C21.9629 15.4907 21.9403 15.5096 21.8955 15.5098H20.5693C20.5239 15.5099 20.5049 15.5362 20.5049 15.5859V17.4375C20.5049 17.4872 20.5238 17.5107 20.5693 17.5107H21.9326L21.9619 17.5137C21.9871 17.5209 22.0019 17.5391 22.002 17.5684C22.002 17.6099 21.9824 17.6447 21.9404 17.668L21.6123 17.8516C21.524 17.902 21.4325 17.9209 21.3408 17.9209H20.5166C20.2447 17.9208 19.959 17.725 19.959 17.3682V15.9131C19.959 15.6986 20.0506 15.5328 20.2383 15.4219L20.6846 15.1709C20.7651 15.1214 20.8606 15.0986 20.9482 15.0986H21.8955ZM26.0459 15.7441C26.0874 15.7441 26.1151 15.7667 26.1152 15.8086V16.1045C26.1152 16.1427 26.0875 16.1621 26.0459 16.1621H25.2939C25.2443 16.1621 25.2247 16.1895 25.2246 16.2393V17.8604C25.2245 17.9055 25.1943 17.9209 25.1562 17.9209H24.7705C24.7245 17.9209 24.709 17.9055 24.709 17.8643V15.8398C24.709 15.7903 24.7245 15.7667 24.7705 15.7666H25.1562C25.1943 15.7667 25.2245 15.7903 25.2246 15.8398V15.9014C25.2246 15.9435 25.2442 15.9629 25.2939 15.9629C25.305 15.9629 25.32 15.9622 25.335 15.9551L25.5566 15.8086C25.6371 15.7666 25.7212 15.7442 25.8203 15.7441H26.0459ZM14.2578 16.1621C14.2041 16.1621 14.1846 16.1894 14.1846 16.2432V17.4609C14.1846 17.5066 14.2041 17.5264 14.2578 17.5264H14.9639C15.0168 17.5264 15.0399 17.5066 15.04 17.4609V16.2432C15.04 16.1894 15.0169 16.1621 14.9639 16.1621H14.2578ZM16.5703 16.1621C16.5171 16.1621 16.4981 16.1894 16.498 16.2432V17.4609C16.4981 17.5066 16.5171 17.5264 16.5703 17.5264H17.2773C17.3261 17.5263 17.3534 17.5065 17.3535 17.4609V16.2432C17.3535 16.2029 17.3379 16.1781 17.3096 16.168L17.2773 16.1621H16.5703ZM22.9033 16.1621C22.8497 16.1622 22.8301 16.1895 22.8301 16.2432V17.4609C22.8302 17.5066 22.8497 17.5263 22.9033 17.5264H23.6094C23.6589 17.5264 23.6864 17.5066 23.6865 17.4609V16.2432C23.6864 16.1894 23.659 16.1621 23.6094 16.1621H22.9033ZM26.7754 16.1621C26.7223 16.1621 26.7022 16.1894 26.7021 16.2432V17.4609C26.7022 17.5066 26.7223 17.5264 26.7754 17.5264H27.4814C27.535 17.5264 27.5585 17.5066 27.5586 17.4609V16.2432C27.5585 16.1894 27.5351 16.1621 27.4814 16.1621H26.7754ZM18.8232 14.833C18.8607 14.833 18.8887 14.8646 18.8887 14.9072V15.2217C18.8885 15.2679 18.8607 15.2832 18.8232 15.2832H18.4414C18.3919 15.2832 18.3761 15.2679 18.376 15.2217V14.9072C18.376 14.8646 18.3917 14.833 18.4414 14.833H18.8232Z" fill="black"/>
</svg>
