<svg width="32" height="32" viewBox="0 0 32 32" fill="none" xmlns="http://www.w3.org/2000/svg">
<path d="M25.5156 13.6875V6.76099C25.5156 6.2087 25.0679 5.76099 24.5156 5.76099H7.48438C6.93209 5.76099 6.48438 6.2087 6.48438 6.76099V17.5625C6.48438 18.1148 6.93209 18.5625 7.48437 18.5625H13.9333" stroke="#283C82" stroke-width="1.5" stroke-linecap="round" stroke-linejoin="round"/>
<path d="M13.9021 18.6085C13.9021 18.5267 9.175 18.5745 7.21705 18.5978C6.73273 18.6035 6.32584 18.9562 6.24709 19.4341L5.33098 24.9935C5.23063 25.6025 5.70048 26.1561 6.31768 26.1561H13.9021" stroke="#283C82" stroke-width="1.5" stroke-linecap="round" stroke-linejoin="round"/>
<path d="M9.54712 9.25391H22.0584" stroke="#283C82" stroke-width="1.5" stroke-linecap="round"/>
<path d="M9.54712 12.9934H12.7146" stroke="#283C82" stroke-width="1.5" stroke-linecap="round"/>
<g clip-path="url(#clip0_76_1260)">
<path d="M21.448 14.9404C22.6239 15.7582 24.1565 16.2929 25.8386 16.4434V20.4004C25.8385 21.8233 25.1978 23.1468 24.1345 23.9707L21.448 26.0518L18.7634 23.9707C17.7002 23.1468 17.0585 21.8233 17.0583 20.4004V16.4434C18.7402 16.2926 20.2721 15.7574 21.448 14.9404Z" fill="white" stroke="#283C82" stroke-width="1.5"/>
<path d="M20.8227 22.4403L18.7881 20.2276L19.6506 19.2896L20.8227 20.5635L23.1334 18.0505L23.9958 18.9885L20.8227 22.4403Z" fill="#283C82"/>
</g>
<defs>
<clipPath id="clip0_76_1260">
<rect width="11" height="13.0007" fill="white" transform="translate(15.5896 14)"/>
</clipPath>
</defs>
</svg>
