<svg width="32" height="32" viewBox="0 0 32 32" fill="none" xmlns="http://www.w3.org/2000/svg">
<path d="M12.8602 16C12.8602 13.3952 14.0879 11.075 15.9997 9.57975C14.6017 8.48635 12.8372 7.83373 10.9196 7.83373C6.3799 7.83373 2.69995 11.4898 2.69995 16C2.69995 20.5102 6.3799 24.1663 10.9196 24.1663C12.8372 24.1663 14.6017 23.5136 15.9997 22.4202C14.0879 20.925 12.8602 18.6047 12.8602 16Z" fill="#EB001B"/>
<path d="M29.3001 16C29.3001 20.5102 25.6201 24.1663 21.0804 24.1663C19.1628 24.1663 17.3984 23.5136 15.9998 22.4202C17.9121 20.925 19.1398 18.6047 19.1398 16C19.1398 13.3952 17.9121 11.075 15.9998 9.57975C17.3984 8.48635 19.1628 7.83373 21.0804 7.83373C25.6201 7.83373 29.3001 11.4898 29.3001 16Z" fill="#F79E1B"/>
</svg>
