<svg width="32" height="32" viewBox="0 0 32 32" fill="none" xmlns="http://www.w3.org/2000/svg">
<path fill-rule="evenodd" clip-rule="evenodd" d="M8.50031 21.151H5.904L3.95709 13.0324C3.86468 12.659 3.66847 12.3288 3.37985 12.1732C2.65956 11.7822 1.86586 11.471 1 11.314V11.0014H5.18245C5.75969 11.0014 6.19262 11.471 6.26478 12.0162L7.27495 17.8724L9.86999 11.0014H12.3941L8.50031 21.151ZM13.8373 21.151H11.3853L13.4043 11.0014H15.8563L13.8373 21.151ZM19.0286 13.8131C19.1008 13.2665 19.5337 12.9539 20.0388 12.9539C20.8325 12.8754 21.6971 13.0324 22.4186 13.4221L22.8515 11.2369C22.13 10.9243 21.3363 10.7673 20.616 10.7673C18.2362 10.7673 16.5044 12.1732 16.5044 14.1244C16.5044 15.6087 17.7311 16.3881 18.5969 16.8576C19.5337 17.3258 19.8945 17.6383 19.8223 18.1065C19.8223 18.8087 19.1008 19.1213 18.3805 19.1213C17.5146 19.1213 16.6488 18.8872 15.8563 18.4962L15.4234 20.6828C16.2893 21.0725 17.226 21.2294 18.0919 21.2294C20.7603 21.3066 22.4186 19.902 22.4186 17.7939C22.4186 15.1392 19.0286 14.9836 19.0286 13.8131V13.8131ZM31 21.151L29.0531 11.0014H26.9619C26.5289 11.0014 26.096 11.314 25.9517 11.7822L22.3465 21.151H24.8706L25.3744 19.668H28.4758L28.7645 21.151H31ZM27.3226 13.7347L28.0429 17.5599H26.0238L27.3226 13.7347Z" fill="#172B85"/>
</svg>
