<svg width="33" height="32" viewBox="0 0 33 32" fill="none" xmlns="http://www.w3.org/2000/svg">
<path d="M20.2208 18.0492C20.1671 17.717 20.0721 17.3929 19.938 17.0843C19.5544 16.1607 18.8861 15.3836 18.0303 14.8661C17.3595 14.4633 16.5907 14.2528 15.8082 14.2577C15.0258 14.2625 14.2597 14.4826 13.594 14.8938C12.9746 15.2661 12.4714 15.8038 12.141 16.4466C12.032 16.6661 11.9411 16.8942 11.8693 17.1287C11.6663 17.7381 11.5882 18.3821 11.6396 19.0224C11.6911 19.6627 11.871 20.286 12.1688 20.8552C12.3732 21.2049 12.6869 21.4777 13.0616 21.6316C13.2473 21.7083 13.4485 21.7402 13.6489 21.7248C13.8493 21.7094 14.0432 21.6471 14.215 21.5428C14.4069 21.3944 14.5504 21.1925 14.6274 20.9624C14.7044 20.7324 14.7115 20.4847 14.6476 20.2507C14.4962 19.6574 14.5116 19.0337 14.692 18.4485C14.7588 18.2574 14.8667 18.0832 15.008 17.9383C15.0977 17.8521 15.2007 17.7809 15.313 17.7276C15.5491 17.6078 15.8167 17.5651 16.0783 17.6056C16.3019 17.6541 16.5108 17.7547 16.6881 17.8993C16.8654 18.0438 17.0061 18.2282 17.0987 18.4374C17.2796 18.8598 17.3739 19.3143 17.376 19.7738C17.3833 21.798 17.0841 23.8116 16.4887 25.7463C16.4388 25.9459 16.3833 26.14 16.3279 26.3341C16.2724 26.5282 16.2059 26.6779 16.3279 26.8276C16.3739 26.8873 16.4352 26.9333 16.5053 26.9607C16.8048 27.0827 17.0599 26.8997 17.2429 26.7001C18.3725 25.4928 19.2042 24.0382 19.6718 22.4523C19.8659 21.8698 20.0215 21.2751 20.1376 20.6722C20.3177 19.8038 20.3477 18.9111 20.2263 18.0326" fill="#008485"/>
<path d="M28.5898 8.83836C28.5871 8.76934 28.5703 8.70161 28.5406 8.63925C28.511 8.57689 28.4689 8.5212 28.4171 8.47557C28.3652 8.42994 28.3046 8.39532 28.239 8.37379C28.1734 8.35227 28.1041 8.3443 28.0353 8.35036C27.7492 8.39143 27.4719 8.47949 27.2145 8.61099C22.0739 10.563 16.2789 10.9345 10.861 10.1526C9.9349 10.0195 8.99772 9.83654 8.08826 9.68681C7.53372 9.59808 6.92926 9.465 6.34144 9.42063C5.81245 9.31825 5.26435 9.4235 4.8109 9.71454C4.57676 9.96997 4.43137 10.2942 4.3964 10.6389C4.36142 10.9837 4.43873 11.3305 4.61681 11.6277C5.01369 12.306 5.58914 12.8622 6.28045 13.2359C6.91892 13.6908 7.67645 13.9491 8.45981 13.979C10.5283 13.8514 12.5967 13.6463 14.6541 13.3801C18.1643 12.9254 21.8632 12.4928 25.135 11.1342C26.2302 10.7024 27.2618 10.1241 28.2016 9.41509C28.368 9.28754 28.612 9.07682 28.612 8.86055" fill="#008485"/>
<path d="M13.845 7.07557C13.8721 7.59334 14.0969 8.08097 14.473 8.43787C14.8491 8.79478 15.3478 8.99375 15.8663 8.99375C16.3848 8.99375 16.8835 8.79478 17.2596 8.43787C17.6357 8.08097 17.8605 7.59334 17.8876 7.07557C17.8892 6.90887 17.8532 6.74396 17.7822 6.59311C17.6103 6.22156 17.4107 6.03856 17.4329 5.60602C17.4329 5.01265 16.6953 5.00156 16.285 5.00156C15.8285 4.98671 15.3749 5.07782 14.9596 5.26774C14.6326 5.43402 14.3568 5.68581 14.1616 5.99632C13.9663 6.30683 13.8588 6.66447 13.8505 7.0312V7.07557" fill="#E90061"/>
</svg>
