<svg width="32" height="32" viewBox="0 0 32 32" fill="none" xmlns="http://www.w3.org/2000/svg">
<g clip-path="url(#clip0_72_6100)">
<path d="M10.1681 5.27597C9.55498 5.58252 9.09516 6.10876 8.88057 6.75762L4.77793 19.0962C4.55823 19.7451 4.60932 20.4399 4.92098 21.0581C5.22753 21.6661 5.75377 22.1259 6.40264 22.3405L19.8704 26.8621C20.5243 27.0767 21.2192 27.0307 21.8323 26.7242C22.4454 26.4125 22.9052 25.8914 23.1147 25.2374L27.2224 12.8988C27.672 11.5551 26.9414 10.099 25.5977 9.6494L12.1351 5.13292C11.4811 4.91833 10.7863 4.96431 10.1732 5.27597" fill="white"/>
<path d="M16.7537 17.1239C16.0231 17.9414 15.1137 18.6005 14.051 19.0092L13.443 19.2442V13.5271L14.0459 13.7621C15.1035 14.1657 16.018 14.8248 16.7537 15.6372C17.2749 14.7942 17.6018 13.8183 17.6683 12.7556C17.8369 10.0171 16.1151 7.4983 13.7598 6.62463L11.8132 5.97577C10.9344 5.68455 9.99943 6.16481 9.70821 7.04358L5.59534 19.3873C5.30412 20.2661 5.7946 21.2215 6.67337 21.5076L16.018 24.6293C16.9734 23.6177 17.5865 22.274 17.6785 20.777C17.7602 19.4435 17.4128 18.1815 16.7537 17.1239ZM11.3534 19.5917H10.4235V13.1797H11.3534V19.5917Z" fill="#0092D8"/>
<path d="M16.2122 16.3781C15.6911 15.765 15.0575 15.2541 14.332 14.876V17.8904C15.0626 17.5123 15.6962 16.9912 16.2122 16.3781Z" fill="#D93D30"/>
<path d="M25.3014 10.4771L16.7231 7.61084C17.8778 8.8728 18.5778 10.5486 18.5829 12.3828C18.5829 13.8338 18.1333 15.2184 17.3465 16.3833C18.1333 17.543 18.5931 18.9276 18.5931 20.3786C18.5931 22.1106 17.9698 23.7098 16.9326 24.9411L20.1565 26.014C21.0353 26.3052 21.9651 25.8198 22.2615 24.9462L26.3794 12.5974C26.6707 11.7186 26.1802 10.7683 25.2963 10.4771M23.0227 19.5765H21.8629L19.477 16.373L21.8987 13.1696H23.0687L20.6419 16.3781L23.0227 19.5765Z" fill="#004B9D"/>
</g>
<defs>
<clipPath id="clip0_72_6100">
<rect width="22.7102" height="22" fill="white" transform="translate(4.64502 5)"/>
</clipPath>
</defs>
</svg>
