<svg width="32" height="32" viewBox="0 0 32 32" fill="none" xmlns="http://www.w3.org/2000/svg">
<path d="M27 16C27 18.1749 26.3553 20.301 25.1473 22.1096C23.9393 23.9181 22.2224 25.328 20.2134 26.1611C18.2044 26.9941 15.9935 27.2129 13.8602 26.7899C11.7268 26.3668 9.76679 25.3208 8.22775 23.7841C6.68871 22.2474 5.63974 20.289 5.21342 18.1563C4.78709 16.0236 5.00252 13.8124 5.83252 11.8021C6.66251 9.79183 8.0698 8.07271 9.87653 6.862C11.6833 5.65129 13.8084 5.00333 15.9832 5.00001C17.4292 4.99781 18.8614 5.28071 20.1979 5.83252C21.5344 6.38434 22.749 7.19425 23.7722 8.21592C24.7955 9.23758 25.6072 10.4509 26.1611 11.7866C26.7149 13.1223 27 14.5541 27 16Z" fill="white"/>
<path d="M15.9833 26.4889C18.0581 26.4905 20.0869 25.8768 21.8129 24.7253C23.5389 23.5737 24.8846 21.9361 25.6798 20.0197C26.4749 18.1032 26.6839 15.994 26.2801 13.9588C25.8763 11.9236 24.878 10.0538 23.4114 8.5861C21.9449 7.11836 20.0759 6.11855 18.041 5.71315C16.0061 5.30775 13.8967 5.51497 11.9797 6.3086C10.0626 7.10224 8.42391 8.44663 7.271 10.1717C6.11809 11.8968 5.50269 13.9251 5.50269 15.9999C5.50159 17.377 5.77187 18.7407 6.29807 20.0132C6.82428 21.2858 7.59609 22.4422 8.56941 23.4163C9.54273 24.3904 10.6985 25.1631 11.9706 25.6903C13.2427 26.2175 14.6062 26.4889 15.9833 26.4889Z" fill="#0083CA"/>
<mask id="mask0_37_1206" style="mask-type:luminance" maskUnits="userSpaceOnUse" x="5" y="5" width="22" height="22">
<path d="M15.983 26.489C18.0559 26.489 20.0822 25.8743 21.8057 24.7227C23.5293 23.5711 24.8726 21.9342 25.6658 20.0191C26.4591 18.1041 26.6666 15.9968 26.2622 13.9638C25.8578 11.9307 24.8597 10.0633 23.3939 8.59752C21.9282 7.13178 20.0607 6.13361 18.0277 5.72922C15.9947 5.32482 13.8873 5.53237 11.9723 6.32562C10.0572 7.11887 8.42038 8.46219 7.26876 10.1857C6.11713 11.9092 5.50244 13.9356 5.50244 16.0084C5.50466 18.7874 6.60958 21.4518 8.57458 23.4169C10.5396 25.3819 13.2041 26.4867 15.983 26.489Z" fill="white"/>
</mask>
<g mask="url(#mask0_37_1206)">
<path d="M16.1003 21.06C20.7164 21.06 24.654 22.3502 26.3546 24.1682C26.9198 22.827 27.2049 21.3844 27.1924 19.929C27.1129 17.0323 25.9063 14.2808 23.8293 12.2601C21.7523 10.2393 18.9688 9.10864 16.071 9.10864C13.1731 9.10864 10.3896 10.2393 8.31261 12.2601C6.2356 14.2808 5.02898 17.0323 4.94946 19.929C4.95613 21.3705 5.25542 22.7956 5.82914 24.1179C7.55496 22.3502 11.5009 21.06 16.1003 21.06Z" fill="#0083CA"/>
<path d="M16.1002 21.0686C20.6996 21.0686 24.6288 22.3504 26.3294 24.1517C26.8895 22.8265 27.1745 21.4014 27.1672 19.9628C27.1672 17.021 25.9986 14.1996 23.9184 12.1194C21.8382 10.0393 19.0169 8.87061 16.0751 8.87061C13.1332 8.87061 10.3119 10.0393 8.23172 12.1194C6.15154 14.1996 4.98291 17.021 4.98291 19.9628C4.98413 21.4048 5.28364 22.831 5.86259 24.1517C7.60516 22.3504 11.5092 21.0686 16.1002 21.0686Z" fill="#0085CB"/>
<path d="M16.1003 21.0852C20.6829 21.0852 24.6121 22.3502 26.296 24.1431C26.8631 22.8201 27.1484 21.3935 27.1338 19.9542C27.0545 17.0729 25.8541 14.3362 23.7881 12.3262C21.7221 10.3162 18.9534 9.19165 16.0709 9.19165C13.1885 9.19165 10.4198 10.3162 8.35376 12.3262C6.28773 14.3362 5.08741 17.0729 5.00811 19.9542C4.99343 21.3935 5.27875 22.8201 5.84588 24.1431C7.60521 22.3502 11.5176 21.0852 16.1003 21.0852Z" fill="#0086CD"/>
<path d="M16.1003 21.0937C20.6746 21.0937 24.587 22.3503 26.2709 24.1264C26.8319 22.8192 27.1171 21.4103 27.1087 19.9878C26.9975 17.136 25.7864 14.4379 23.7294 12.4595C21.6723 10.4811 18.9292 9.37598 16.0751 9.37598C13.2211 9.37598 10.478 10.4811 8.42093 12.4595C6.3639 14.4379 5.1528 17.136 5.04165 19.9878C5.02923 21.408 5.31462 22.815 5.87942 24.118C7.60524 22.3503 11.5344 21.0937 16.1003 21.0937Z" fill="#0088CE"/>
<path d="M16.1003 21.1105C20.6578 21.1105 24.5618 22.3504 26.2457 24.1181C26.8059 22.8224 27.0912 21.4246 27.0835 20.013C26.9725 17.1677 25.7641 14.4759 23.7118 12.5021C21.6595 10.5283 18.9226 9.42578 16.0751 9.42578C13.2277 9.42578 10.4908 10.5283 8.43851 12.5021C6.38618 14.4759 5.1778 17.1677 5.06678 20.013C5.05464 21.425 5.3401 22.8237 5.90455 24.1181C7.60524 22.3504 11.5428 21.1105 16.1003 21.1105Z" fill="#008ACF"/>
<path d="M16.0919 21.1189C20.6494 21.1189 24.5367 22.3504 26.2122 24.1014C26.7769 22.8189 27.0625 21.431 27.05 20.0298C27.05 14.2575 22.1323 9.50732 16.0668 9.50732C10.0013 9.50732 5.09189 14.2575 5.09189 20.0382C5.08035 21.4366 5.36591 22.8216 5.92966 24.1014C7.65548 22.3504 11.5511 21.1189 16.0919 21.1189Z" fill="#008CD0"/>
<path d="M16.0917 21.1271C20.6324 21.1271 24.5197 22.3587 26.1869 24.0845C26.7467 22.8152 27.0322 21.442 27.0246 20.0548C27.0246 14.3244 22.1153 9.59937 16.0665 9.59937C10.0178 9.59937 5.12519 14.3328 5.12519 20.0548C5.11662 21.4421 5.40215 22.8155 5.96296 24.0845C7.67203 22.3587 11.5593 21.1271 16.0917 21.1271Z" fill="#008ED2"/>
<path d="M16.0918 21.144C20.6242 21.144 24.4696 22.3587 26.1451 24.0762C26.7059 22.8161 26.9915 21.4509 26.9829 20.0716C26.9829 14.3915 22.0903 9.69995 16.0918 9.69995C10.0933 9.69995 5.20072 14.3999 5.20072 20.08C5.19711 21.456 5.48253 22.8175 6.03849 24.0762C7.69729 22.3587 11.5762 21.144 16.0918 21.144Z" fill="#008FD3"/>
<path d="M16.0918 21.1522C20.6074 21.1522 24.4696 22.3586 26.1451 24.0593C26.7057 22.8139 26.9915 21.4624 26.9829 20.0966C26.9829 14.4668 22.0987 9.79199 16.0918 9.79199C10.085 9.79199 5.20072 14.4668 5.20072 20.0966C5.19705 21.4619 5.48258 22.8124 6.03849 24.0593C7.71405 22.3586 11.5846 21.1522 16.0918 21.1522Z" fill="#0091D4"/>
<path d="M16.092 21.1691C20.5908 21.1691 24.4697 22.3588 26.1034 24.0511C26.6632 22.8143 26.949 21.4711 26.9411 20.1135C26.9411 14.5339 22.0737 9.88428 16.0501 9.88428C10.0264 9.88428 5.15897 14.5339 5.15897 20.1135C5.1553 21.4706 5.4409 22.813 5.99675 24.0511C7.73932 22.3588 11.5931 21.1691 16.092 21.1691Z" fill="#0093D5"/>
<path d="M16.0917 21.1774C20.5822 21.1774 24.4276 22.3586 26.078 24.0342C26.6337 22.8108 26.9194 21.4822 26.9158 20.1385C26.9158 14.6008 22.0567 9.97632 16.075 9.97632C10.0932 9.97632 5.23417 14.6092 5.23417 20.1385C5.23051 21.4822 5.51625 22.8108 6.07194 24.0342C7.75587 22.3586 11.6013 21.1774 16.0917 21.1774Z" fill="#0095D7"/>
<path d="M16.0835 21.1858C20.5656 21.1858 24.4027 22.3587 26.0447 24.0175C26.6043 22.8073 26.8904 21.4887 26.8825 20.1554C26.8825 14.6679 22.0401 10.1021 16.0668 10.1021C10.0935 10.1021 5.26785 14.7098 5.26785 20.1554C5.26454 21.4882 5.55037 22.8059 6.10563 24.0175C7.78118 22.3587 11.6182 21.1858 16.0835 21.1858Z" fill="#0097D8"/>
<path d="M16.0835 21.2026C20.5572 21.2026 24.3775 22.3587 26.0195 24.0091C26.5743 22.8092 26.8603 21.5025 26.8573 20.1805C26.8573 14.7433 22.0317 10.1272 16.0751 10.1272C10.1185 10.1272 5.30129 14.7098 5.30129 20.1805C5.29829 21.5025 5.58422 22.8092 6.13907 24.0091C7.79786 22.3587 11.6265 21.2026 16.0835 21.2026Z" fill="#0099D9"/>
<path d="M16.0835 21.211C20.5405 21.211 24.3524 22.3672 25.9944 23.9924C26.5499 22.8046 26.836 21.5086 26.8322 20.1973C26.8322 14.8104 22.0149 10.2529 16.0751 10.2529C10.1353 10.2529 5.32645 14.8104 5.32645 20.1973C5.32262 21.5086 5.60871 22.8046 6.16423 23.9924C7.82303 22.3672 11.6349 21.211 16.0835 21.211Z" fill="#009BDA"/>
<path d="M16.0835 21.2277C20.5237 21.2277 24.3356 22.3671 25.9609 23.984C26.5154 22.8047 26.8015 21.5171 26.7986 20.214C26.7986 14.8773 21.9982 10.345 16.0751 10.345C10.152 10.345 5.35157 14.8773 5.35157 20.2224C5.34964 21.5227 5.63575 22.8073 6.18935 23.984C7.83977 22.3671 11.6433 21.2277 16.0835 21.2277Z" fill="#009DDC"/>
<path d="M16.0834 21.2362C20.5152 21.2362 24.3104 22.3672 25.9356 23.9673C26.49 22.8028 26.7763 21.5289 26.7734 20.2392C26.7734 14.9445 21.9813 10.4373 16.075 10.4373C10.1687 10.4373 5.38501 14.9529 5.38501 20.2392C5.38581 21.5285 5.67191 22.8017 6.22279 23.9673C7.86483 22.3672 11.6599 21.2362 16.0834 21.2362Z" fill="#009FDD"/>
<path d="M16.0836 21.2445C20.4986 21.2445 24.2854 22.3671 25.9107 23.9505C26.4661 22.7983 26.7526 21.535 26.7485 20.2559C26.7485 15.0198 21.9731 10.5293 16.0836 10.5293C10.194 10.5293 5.4187 15.0198 5.4187 20.2559C5.41859 21.5345 5.70485 22.7969 6.25648 23.9505C7.88176 22.3671 11.6685 21.2445 16.0836 21.2445Z" fill="#00A1DE"/>
<path d="M16.075 21.2613C20.4901 21.2613 24.2601 22.3671 25.877 23.9422C26.4298 22.8009 26.7162 21.5491 26.7148 20.2811C26.7148 15.0869 21.9479 10.6299 16.0667 10.6299C10.1855 10.6299 5.4353 15.0869 5.4353 20.2811C5.43707 21.5488 5.72336 22.7999 6.27308 23.9422C7.89836 22.3671 11.6767 21.2613 16.075 21.2613Z" fill="#00A3DF"/>
<path d="M16.075 21.2698C20.4733 21.2698 24.2349 22.3672 25.8518 23.9255C26.406 22.7967 26.6927 21.5554 26.6896 20.2979C26.6896 15.154 21.9394 10.7222 16.075 10.7222C10.2105 10.7222 5.46875 15.154 5.46875 20.2979C5.46979 21.555 5.75625 22.7953 6.30653 23.9255C7.92343 22.3672 11.6934 21.2698 16.075 21.2698Z" fill="#00A5E1"/>
<path d="M16.075 21.2862C20.4566 21.2862 24.2182 22.3669 25.8267 23.9168C26.3762 22.7983 26.6628 21.5689 26.6645 20.3227C26.6645 15.2207 21.9227 10.814 16.075 10.814C10.2273 10.814 5.4939 15.229 5.4939 20.3227C5.49562 21.5689 5.78218 22.7983 6.33167 23.9168C7.9402 22.3669 11.7018 21.2862 16.075 21.2862Z" fill="#00A7E2"/>
<path d="M16.0751 21.2947C20.4483 21.2947 24.1932 22.3754 25.8017 23.9001C26.351 22.7935 26.6377 21.5751 26.6395 20.3396C26.6395 15.3129 21.9144 10.9062 16.0835 10.9062C10.2526 10.9062 5.53589 15.2962 5.53589 20.3396C5.53767 21.5751 5.82436 22.7935 6.37366 23.9001C7.96544 22.4173 11.7103 21.2947 16.0751 21.2947Z" fill="#00A9E3"/>
<path d="M16.0751 21.3032C20.4315 21.3032 24.168 22.3755 25.7682 23.8835C26.3175 22.7918 26.6044 21.587 26.606 20.3649C26.606 15.3382 21.8977 10.9985 16.0835 10.9985C10.2693 10.9985 5.56104 15.3633 5.56104 20.3649C5.56259 21.587 5.84946 22.7918 6.39881 23.8835C7.98221 22.4174 11.7187 21.3032 16.0751 21.3032Z" fill="#00ABE5"/>
<path d="M16.0751 21.3198C20.4232 21.3198 24.1429 22.3754 25.7431 23.875C26.2921 22.7922 26.5791 21.5956 26.5808 20.3815C26.5808 15.4303 21.8809 11.0906 16.0835 11.0906C10.2861 11.0906 5.58618 15.4303 5.58618 20.3815C5.58793 21.5956 5.8749 22.7922 6.42396 23.875C8.00735 22.4173 11.7354 21.3198 16.0751 21.3198Z" fill="#00ADE6"/>
<path d="M16.0667 21.3282C20.4064 21.3282 24.1261 22.3755 25.7179 23.8416C26.2633 22.7694 26.5502 21.5845 26.5556 20.3815C26.5556 15.4806 21.8725 11.166 16.0834 11.166C10.2944 11.166 5.61963 15.4889 5.61963 20.3815C5.62537 21.5844 5.91226 22.7693 6.4574 23.8416C8.02405 22.4173 11.7438 21.3282 16.0667 21.3282Z" fill="#00AFE7"/>
<path d="M16.0668 21.3451C20.3981 21.3451 24.101 22.3755 25.6844 23.8584C26.2331 22.8024 26.5204 21.6303 26.5222 20.4403C26.5222 15.5895 21.8474 11.2917 16.0752 11.2917C10.3029 11.2917 5.63647 15.5895 5.63647 20.4403C5.6422 21.6298 5.92928 22.801 6.47425 23.8584C8.04927 22.4174 11.7941 21.3451 16.0668 21.3451Z" fill="#00B2E9"/>
<path d="M16.0666 21.3534C20.3812 21.3534 24.0758 22.3755 25.6592 23.8667C26.2042 22.8184 26.4914 21.6553 26.4969 20.4737C26.4969 15.6733 21.8389 11.4006 16.0834 11.4006C10.3279 11.4006 5.67822 15.6733 5.67822 20.4737C5.68377 21.6553 5.97097 22.8184 6.516 23.8667C8.06588 22.4174 11.794 21.3534 16.0666 21.3534Z" fill="#00B4EA"/>
<path d="M16.0666 21.3617C20.3644 21.3617 24.0506 22.3754 25.634 23.8164C26.1778 22.7827 26.4651 21.6333 26.4718 20.4653C26.4718 15.7068 21.8222 11.4592 16.0834 11.4592C10.3446 11.4592 5.70337 15.7068 5.70337 20.4653C5.71008 21.6333 5.9974 22.7827 6.54114 23.8164C8.09103 22.4173 11.794 21.3617 16.0666 21.3617Z" fill="#00B6EB"/>
<path d="M16.0667 21.3783C20.3561 21.3783 24.0255 22.3836 25.6006 23.8078C26.1522 22.7771 26.4401 21.6258 26.4383 20.4567C26.4383 15.7484 21.797 11.5344 16.0834 11.5344C10.3698 11.5344 5.72852 15.7233 5.72852 20.4567C5.7309 21.6253 6.01848 22.7756 6.56629 23.8078C8.1078 22.4171 11.794 21.3783 16.0667 21.3783Z" fill="#00B8ED"/>
<path d="M16.0583 21.387C20.3393 21.387 24.0088 22.384 25.5754 23.7915C26.119 22.7818 26.4067 21.6541 26.4132 20.5074C26.4132 15.8494 21.7803 11.6521 16.075 11.6521C10.3698 11.6521 5.75366 15.841 5.75366 20.5074C5.76019 21.6541 6.04785 22.7818 6.59144 23.7915C8.12457 22.4175 11.794 21.387 16.0583 21.387Z" fill="#01BBEE"/>
<path d="M16.0584 21.4037C20.3311 21.4037 23.9838 22.3839 25.5504 23.7746C26.0939 22.7769 26.3817 21.6601 26.3882 20.524C26.3882 15.9162 21.772 11.7441 16.0835 11.7441C10.395 11.7441 5.79565 15.933 5.79565 20.524C5.80217 21.6601 6.09 22.7769 6.63343 23.7746C8.1498 22.4174 11.7941 21.4037 16.0584 21.4037Z" fill="#11BDF0"/>
<path d="M16.0584 21.412C20.3143 21.412 23.9587 22.3838 25.5169 23.7661C26.0592 22.7801 26.3472 21.6744 26.3547 20.549C26.3547 15.9832 21.7553 11.8362 16.0836 11.8362C10.4118 11.8362 5.8208 15.9832 5.8208 20.5407C5.82727 21.6688 6.11523 22.7774 6.65858 23.7661C8.16657 22.4173 11.7941 21.412 16.0584 21.412Z" fill="#1AC0F1"/>
<path d="M16.0584 21.4205C20.2976 21.4205 23.9335 22.3839 25.4918 23.7495C26.034 22.7755 26.3222 21.6806 26.3296 20.5659C26.3296 16.0503 21.7386 11.9285 16.0836 11.9285C10.4286 11.9285 5.84595 16.0503 5.84595 20.5659C5.85226 21.6808 6.14046 22.7759 6.68372 23.7495C8.19172 22.4174 11.7942 21.4205 16.0584 21.4205Z" fill="#1FC4F4"/>
<path d="M16.0583 21.454C20.2974 21.454 23.925 22.409 25.4749 23.7662C26.0171 22.7983 26.3053 21.7088 26.3126 20.5994C26.3126 16.1173 21.73 12.0122 16.0834 12.0122C10.4368 12.0122 5.86255 16.1173 5.86255 20.5994C5.87557 21.7081 6.16343 22.7961 6.70032 23.7662C8.19994 22.4174 11.794 21.454 16.0583 21.454Z" fill="#32C5F4"/>
<path d="M16.0584 21.479C20.2892 21.479 23.9168 22.4257 25.4667 23.7745C26.0048 22.8141 26.2929 21.7338 26.3045 20.6329C26.3045 16.1759 21.7302 12.0959 16.0836 12.0959C10.437 12.0959 5.87109 16.1759 5.87109 20.6329C5.88264 21.7338 6.17072 22.8141 6.70887 23.7745C8.20849 22.4173 11.8361 21.479 16.0584 21.479Z" fill="#3FC7F4"/>
<path d="M16.0583 21.5041C20.2472 21.5041 23.9082 22.4424 25.4497 23.7828C25.9913 22.8329 26.2798 21.7597 26.2875 20.6663C26.2875 16.2344 21.7216 12.188 16.0834 12.188C10.4452 12.188 5.8877 16.2344 5.8877 20.6663C5.89913 21.7592 6.18736 22.8314 6.72547 23.7828C8.22509 22.4172 11.8443 21.5041 16.0583 21.5041Z" fill="#4AC8F5"/>
<path d="M16.0585 21.5294C20.2474 21.5294 23.8918 22.4677 25.4416 23.7997C25.9787 22.854 26.267 21.7875 26.2794 20.7C26.2794 16.3017 21.7219 12.272 16.0921 12.272C10.4622 12.272 5.91309 16.3017 5.91309 20.6916C5.92447 21.7819 6.21275 22.8514 6.75086 23.7997C8.23372 22.4677 11.8529 21.5294 16.0585 21.5294Z" fill="#54CAF5"/>
<path d="M16.0584 21.5797C20.2473 21.5797 23.8832 22.5096 25.4247 23.8333C25.9664 22.8956 26.2551 21.8332 26.2625 20.7503C26.2625 16.3855 21.705 12.3726 16.0835 12.3726C10.462 12.3726 5.92969 16.3604 5.92969 20.7419C5.94494 21.8237 6.23311 22.8842 6.76746 23.8249C8.24195 22.4845 11.8528 21.5797 16.0584 21.5797Z" fill="#5CCCF5"/>
<path d="M16.0584 21.5796C20.2473 21.5796 23.8749 22.5095 25.4164 23.8248C25.9531 22.8911 26.2415 21.8355 26.2541 20.7586C26.2541 16.4189 21.705 12.4395 16.0919 12.4395C10.4788 12.4395 5.92969 16.4189 5.92969 20.7418C5.94227 21.8187 6.23071 22.8744 6.76746 23.8081C8.25033 22.5095 11.8611 21.5796 16.0584 21.5796Z" fill="#64CDF6"/>
<path d="M16.0582 21.5796C20.247 21.5796 23.8662 22.4928 25.3994 23.7997C25.9362 22.8752 26.2248 21.8276 26.2371 20.7586C26.2371 16.4524 21.6964 12.4897 16.0917 12.4897C10.487 12.4897 5.95459 16.4524 5.95459 20.7586C5.95682 21.8235 6.23077 22.8702 6.75049 23.7997C8.25848 22.5263 11.8693 21.5796 16.0582 21.5796Z" fill="#6CCFF6"/>
<path d="M16.0584 21.6383C20.2473 21.6383 23.8497 22.5515 25.3912 23.8417C25.9277 22.9262 26.2165 21.8867 26.229 20.8257C26.229 16.5447 21.6883 12.6155 16.0919 12.6155C10.4956 12.6155 5.92969 16.553 5.92969 20.8257C5.94104 21.8869 6.22986 22.9267 6.76746 23.8417C8.27546 22.5515 11.8695 21.6383 16.0584 21.6383Z" fill="#73D1F6"/>
<path d="M16.0584 21.6634C20.2473 21.6634 23.8413 22.5682 25.3745 23.8584C25.9107 22.9489 26.1995 21.9149 26.2122 20.8592C26.2122 16.6033 21.6799 12.6992 16.0919 12.6992C10.5039 12.6992 5.92969 16.6033 5.92969 20.8592C5.9424 21.9149 6.23123 22.9489 6.76746 23.8584C8.28384 22.5682 11.8779 21.6634 16.0584 21.6634Z" fill="#7AD2F7"/>
<path d="M16.0584 21.6885C20.2473 21.6885 23.833 22.5933 25.3661 23.8667C25.8842 22.9609 26.1584 21.9361 26.162 20.8926C26.162 16.7037 21.638 12.783 16.0584 12.783C10.4788 12.783 6.00513 16.6702 6.00513 20.8926C6.0087 21.9361 6.28294 22.9609 6.80102 23.8667C8.29226 22.5933 11.8863 21.6885 16.0584 21.6885Z" fill="#81D4F7"/>
<path d="M16.0584 21.7136C20.2472 21.7136 23.8245 22.61 25.3493 23.8751C25.8851 22.9837 26.1742 21.966 26.1871 20.9261C26.1871 16.7372 21.6631 12.8667 16.0919 12.8667C10.5207 12.8667 6.03857 16.7288 6.03857 20.9177C6.05126 21.9629 6.3403 22.9861 6.87635 23.8834C8.30057 22.61 11.8862 21.7136 16.0584 21.7136Z" fill="#88D6F8"/>
<path d="M16.0582 21.7471C20.2471 21.7471 23.8076 22.6351 25.3408 23.8918C25.8586 22.9981 26.133 21.9841 26.1366 20.9512C26.1366 16.7623 21.621 12.9504 16.0833 12.9504C10.5456 12.9504 6.03003 16.7874 6.03003 20.9512C6.03363 21.9841 6.30806 22.9981 6.82593 23.8918C8.31717 22.6351 11.8945 21.7471 16.0582 21.7471Z" fill="#8ED8F8"/>
<path d="M16.0582 21.7724C20.2471 21.7724 23.7993 22.6101 25.324 23.9003C25.8563 23.0197 26.1454 22.0137 26.1618 20.9848C26.1618 16.8546 21.6546 13.0427 16.1085 13.0427C10.5624 13.0427 6.05518 16.8546 6.05518 20.9848C6.06747 22.0143 6.35687 23.0214 6.89295 23.9003C8.32555 22.652 11.9029 21.7724 16.0582 21.7724Z" fill="#94DAF8"/>
<path d="M16.0584 21.7974C20.2473 21.7974 23.7911 22.6352 25.274 23.917C25.8083 23.0435 26.0977 22.0422 26.1117 21.0183C26.1117 16.9132 21.6045 13.1265 16.0584 13.1265C10.5124 13.1265 6.00513 16.9132 6.00513 21.0183C6.01016 22.0378 6.28475 23.0379 6.80102 23.917C8.33415 22.6687 11.9031 21.7974 16.0584 21.7974Z" fill="#9BDCF9"/>
<path d="M16.0583 21.8225C20.2472 21.8225 23.7826 22.6603 25.2739 23.9253C25.7899 23.0553 26.0647 22.0634 26.0698 21.0518C26.0698 16.9718 21.5709 13.2102 16.0164 13.2102C10.462 13.2102 5.96313 16.9802 5.96313 21.0518C5.9682 22.0634 6.24292 23.0553 6.75901 23.9253C8.3424 22.6938 11.9113 21.8225 16.0583 21.8225Z" fill="#A1DDF9"/>
<path d="M16.0583 21.8477C20.2472 21.8477 23.7659 22.6854 25.2739 23.9337C25.7898 23.0728 26.0647 22.0889 26.0698 21.0853C26.0698 17.0388 21.5793 13.2939 16.0164 13.2939C10.4536 13.2939 5.96313 17.0388 5.96313 21.0853C5.96916 22.0914 6.24392 23.0777 6.75901 23.9421C8.35916 22.7106 11.9197 21.8477 16.0583 21.8477Z" fill="#A7DFF9"/>
<path d="M16.0582 21.8727C20.2471 21.8727 23.7574 22.7105 25.2738 23.9504C25.8034 23.0994 26.0929 22.1209 26.1115 21.1188C26.1115 17.0974 21.6294 13.3777 16.0582 13.3777C10.487 13.3777 6.05518 17.0974 6.05518 21.1188C6.07298 22.1211 6.36253 23.0997 6.89295 23.9504C8.36744 22.7356 11.9196 21.8811 16.0582 21.8727Z" fill="#ADE1FA"/>
<path d="M16.0581 21.9064C20.1968 21.9064 23.7489 22.7441 25.2737 23.9589C25.7893 23.1132 26.0645 22.1428 26.0696 21.1524C26.0696 17.1562 21.5958 13.47 16.0749 13.47C10.554 13.47 6.08862 17.1646 6.08862 21.144C6.08969 22.1365 6.362 23.1099 6.87613 23.9589C8.37575 22.7525 11.9279 21.9064 16.0581 21.9064Z" fill="#B3E3FA"/>
<path d="M16.0582 21.9315C20.1885 21.9315 23.7407 22.7692 25.2738 23.9673C25.7864 23.1299 26.0588 22.1676 26.0613 21.1858C26.0613 17.2232 21.5959 13.5537 16.0834 13.5537C10.5708 13.5537 6.10547 17.2231 6.10547 21.1774C6.11083 22.1653 6.38605 23.1328 6.90137 23.9756C8.38423 22.7776 11.9364 21.9315 16.0582 21.9315Z" fill="#B8E5FA"/>
<path d="M16.0584 21.9565C20.1887 21.9565 23.7241 22.7943 25.274 23.9839C25.7892 23.1503 26.0646 22.1908 26.0699 21.2109C26.0699 17.2817 21.6045 13.6709 16.1003 13.6709C10.5961 13.6709 6.13916 17.3152 6.13916 21.2109C6.14572 22.1895 6.41791 23.1479 6.92667 23.9839C8.44305 22.7943 11.9366 21.9565 16.0584 21.9565Z" fill="#BEE7FB"/>
<path d="M16.0584 21.9818C20.1803 21.9818 23.7157 22.8196 25.2237 23.9925C25.7324 23.1657 26.0047 22.2153 26.0112 21.2446C26.0112 17.3405 21.5542 13.7046 16.0584 13.7046C10.5626 13.7046 6.11401 17.3322 6.11401 21.2446C6.11657 22.2159 6.38924 23.1673 6.90152 23.9925C8.44303 22.8196 11.9449 21.9818 16.0584 21.9818Z" fill="#C4E9FB"/>
<path d="M16.0583 22.0068C20.1718 22.0068 23.7072 22.8445 25.2068 24.009C25.7182 23.1896 25.9909 22.2438 25.9944 21.2779C25.9944 17.4074 21.5458 13.8049 16.0583 13.8049C10.5709 13.8049 6.12231 17.4074 6.12231 21.2779C6.13013 22.2432 6.40251 23.1878 6.90983 24.009C8.44296 22.8361 11.9532 22.0151 16.0583 22.0068Z" fill="#CAEBFC"/>
<path d="M16.0584 22.0405C20.1719 22.0405 23.6989 22.8782 25.1986 24.0176C25.7058 23.2056 25.9784 22.269 25.9861 21.3116C25.9861 17.4662 21.5375 13.8889 16.0584 13.8889C10.5794 13.8889 6.13916 17.4662 6.13916 21.3116C6.14683 22.269 6.4194 23.2056 6.92667 24.0176C8.44305 22.8615 11.9533 22.0405 16.0584 22.0405Z" fill="#CFEDFC"/>
<path d="M16.0583 22.0655C20.1634 22.0655 23.682 22.9033 25.1817 24.0259C25.6885 23.223 25.9613 22.2945 25.9692 21.345C25.9692 17.5248 21.529 13.981 16.0583 13.981C10.5876 13.981 6.15576 17.5331 6.15576 21.345C6.16182 22.2962 6.43154 23.2271 6.93491 24.0343C8.44291 22.8781 11.9616 22.0655 16.0583 22.0655Z" fill="#D5EFFC"/>
<path d="M16.0582 22.0906C20.1549 22.0906 23.6736 22.9284 25.1732 24.0426C25.6778 23.2453 25.9478 22.3221 25.9523 21.3785C25.9523 17.5917 21.5205 14.0647 16.0582 14.0647C10.5959 14.0647 6.16406 17.5917 6.16406 21.3785C6.17108 22.3229 6.44401 23.2462 6.95157 24.0426C8.44281 22.8949 11.9698 22.0906 16.0582 22.0906Z" fill="#DAF1FD"/>
<path d="M16.0583 22.1157C20.155 22.1157 23.6653 22.9535 25.1565 24.051C25.6629 23.2633 25.9359 22.3483 25.9441 21.4119C25.9441 17.6503 21.5122 14.1484 16.0583 14.1484C10.6044 14.1484 6.18091 17.6503 6.18091 21.4036C6.18494 22.342 6.45513 23.26 6.96006 24.051C8.44292 22.92 11.9783 22.1157 16.0583 22.1157Z" fill="#E0F3FD"/>
<path d="M16.0584 22.141C20.1467 22.141 23.6486 22.9369 25.1482 24.0679C25.6469 23.2802 25.9166 22.3694 25.9274 21.4373C25.9274 17.7175 21.5039 14.2324 16.0584 14.2324C10.6128 14.2324 6.19775 17.7175 6.19775 21.4373C6.20311 22.3702 6.4733 23.2825 6.97688 24.0679C8.44299 22.9369 11.9784 22.1494 16.0584 22.141Z" fill="#E6F5FD"/>
<path d="M16.0583 22.1743C20.1383 22.1743 23.6402 22.9618 25.1314 24.076C25.6347 23.2998 25.9051 22.3956 25.9106 21.4705C25.9106 17.7759 21.4955 14.3159 16.0583 14.3159C10.6211 14.3159 6.20605 17.7759 6.20605 21.4705C6.21524 22.3951 6.48533 23.2982 6.98521 24.076C8.48482 22.9618 11.9867 22.1743 16.0583 22.1743Z" fill="#EBF7FE"/>
<path d="M16.0581 22.1995C20.1381 22.1995 23.5981 22.9786 25.1145 24.0845C25.62 23.3182 25.8934 22.4222 25.902 21.5042C25.902 17.8347 21.4869 14.4082 16.0581 14.4082C10.6293 14.4082 6.22266 17.8347 6.22266 21.5042C6.22901 22.4239 6.49944 23.3224 7.00178 24.0929C8.49302 22.9786 11.9949 22.1995 16.0581 22.1995Z" fill="#F1FAFE"/>
<path d="M16.0582 22.2246C20.1298 22.2246 23.5982 23.0037 25.1062 24.1012C25.6044 23.3382 25.8747 22.4489 25.8854 21.5376C25.8854 17.9017 21.4786 14.4919 16.0582 14.4919C10.6378 14.4919 6.2395 17.9017 6.2395 21.5376C6.24721 22.4481 6.51461 23.3375 7.01027 24.1012C8.50151 23.0037 11.995 22.2246 16.0582 22.2246Z" fill="#F7FCFE"/>
<path d="M16.0584 22.2497C20.1216 22.2497 23.5984 23.0205 25.0896 24.1096C25.5863 23.3645 25.8569 22.4916 25.8687 21.5962C25.8687 17.9854 21.4704 14.6008 16.0584 14.6008C10.6464 14.6008 6.24805 17.9519 6.24805 21.5962C6.25986 22.4916 6.53044 23.3645 7.02717 24.1096C8.51004 23.0205 12.0036 22.2497 16.0584 22.2497Z" fill="white"/>
</g>
<path d="M15.9832 18.6473C12.7203 18.6183 9.47812 19.1686 6.40747 20.2726C7.23124 22.1243 8.57421 23.6975 10.2738 24.8016C11.9733 25.9057 13.9566 26.4933 15.9832 26.4933C18.0099 26.4933 19.9932 25.9057 21.6927 24.8016C23.3923 23.6975 24.7352 22.1243 25.559 20.2726C22.4884 19.1686 19.2462 18.6183 15.9832 18.6473Z" fill="#0083CA"/>
</svg>
