<svg width="32" height="32" viewBox="0 0 32 32" fill="none" xmlns="http://www.w3.org/2000/svg">
<path d="M20.5004 5L15.997 7.1792L11.5 5L15.997 13.2479L20.5004 5Z" fill="#FDB913"/>
<path d="M22.0746 11.3721L22.0046 11.3169L25.2168 10.0174V5.68042L19.6543 7.9577C19.6543 7.9577 16.6298 13.4747 16.5631 13.6003C17.7521 13.7356 18.8425 14.3036 19.6113 15.1881C20.3802 16.0726 20.7692 17.2068 20.6989 18.3586C20.6287 19.5105 20.1043 20.5929 19.2332 21.3845C18.3621 22.1761 17.2101 22.617 16.0129 22.617C14.8156 22.617 13.6636 22.1761 12.7925 21.3845C11.9214 20.5929 11.397 19.5105 11.3268 18.3586C11.2565 17.2068 11.6455 16.0726 12.4144 15.1881C13.1832 14.3036 14.2736 13.7356 15.4627 13.6003L12.3777 7.9577L6.78667 5.68042V10.0327L9.99564 11.3322L9.92567 11.3874C8.50859 12.5791 7.50265 14.1593 7.04229 15.9167C6.58192 17.6741 6.68905 19.525 7.34938 21.2222C8.0097 22.9193 9.19175 24.3818 10.7376 25.4143C12.2834 26.4467 14.1194 26.9999 16.0001 26.9999C17.8809 26.9999 19.7168 26.4467 21.2627 25.4143C22.8085 24.3818 23.9906 22.9193 24.6509 21.2222C25.3112 19.525 25.4183 17.6741 24.958 15.9167C24.4976 14.1593 23.4917 12.5791 22.0746 11.3874V11.3721Z" fill="#FDB913"/>
</svg>
