<svg width="32" height="32" viewBox="0 0 32 32" fill="none" xmlns="http://www.w3.org/2000/svg">
<mask id="mask0_37_1203" style="mask-type:luminance" maskUnits="userSpaceOnUse" x="5" y="5" width="22" height="22">
<path d="M13.5173 25.3243C12.3039 25.2049 10.8539 24.8231 9.58906 23.727C8.42511 22.7255 7.70574 21.3453 7.35584 20.1277C6.99873 18.8844 6.84847 17.4342 7.4392 17.5495C7.62135 17.5824 7.93627 18.3821 8.27691 18.9626C8.62991 19.5616 8.916 19.8951 9.18358 20.0989C9.30605 20.1905 9.72079 19.2693 10.3249 18.7434C10.6758 18.4511 11.0556 18.3533 11.1235 19.2189C11.1955 20.277 11.0051 21.5378 11.3159 21.5378C11.6 21.5378 12.2545 21.3206 13.686 21.1981C14.2263 21.1528 14.5351 21.2547 14.0205 21.9762C13.7632 22.3385 13.4216 22.848 12.6085 23.4336C13.826 24.574 15.2853 24.4351 15.3131 24.9199C15.3296 25.1998 14.7852 25.3542 14.0709 25.3542C13.895 25.3542 13.7087 25.3439 13.5173 25.3233M17.6142 15.0773C16.4997 14.8447 16.2712 13.8329 16.2712 13.8329C16.1796 13.4758 16.158 13.025 16.2331 12.4496C16.3834 11.2475 16.7086 10.6855 17.077 9.75302C17.5741 8.50249 16.368 7.77071 16.5645 7.31269C16.8372 6.69104 17.6976 7.48149 18.6619 7.54016C19.4904 7.58441 19.9885 7.5453 20.6317 7.63176C21.4879 7.74395 22.514 8.03522 22.9699 8.57042C23.3867 9.06137 22.7465 9.6573 21.9819 9.28471C21.42 9.01094 20.714 9.17767 21.1277 9.76331C21.6258 10.3191 21.8646 10.3345 22.376 10.4673C23.7767 10.8378 23.8055 12.182 22.8546 12.8737C21.7792 13.6641 20.6811 13.3358 20.2468 11.7878C20.0265 11.0138 19.4832 10.6217 18.9212 10.8419C18.3676 11.0601 18.6959 12.077 19.1199 13.0208C19.8516 14.891 18.3717 15.0876 17.8036 15.0876C17.7141 15.0876 17.6482 15.0834 17.6153 15.0793M16.8105 25.6763C16.8012 25.4293 17.1625 25.3665 17.1625 25.3665C20.4176 24.7243 19.4657 22.5897 18.3151 21.5018C17.8304 21.0458 13.3022 17.1357 13.3022 17.1357C8.98393 13.4161 9.32971 10.5157 9.32971 10.5157C9.54275 6.94217 12.6651 6.056 15.0321 6.26287C15.309 6.28655 15.4644 6.45225 15.4119 6.68692C15.3625 6.93908 14.9951 6.95555 14.9951 6.95555C14.2418 6.99981 13.5687 7.07494 13.0572 7.42179C11.1523 8.70525 11.7101 10.8862 14.2531 13.3152C14.5742 13.6188 14.9138 13.943 15.2647 14.2714C15.2647 14.2714 15.7711 14.7211 16.7909 15.6866C18.7473 17.4877 19.8166 18.4583 19.8166 18.4583C23.2642 21.3288 22.0838 23.9544 20.7696 24.8643C19.7631 25.5611 18.6516 25.8873 17.1913 25.9666L17.1542 25.9686C17.0215 25.9686 16.8198 25.8873 16.8115 25.6763M15.4983 5.01132C9.43263 5.2851 4.73669 10.4292 5.01147 16.4976C5.28625 22.565 10.4299 27.2624 16.4966 26.9886C22.5613 26.7148 27.2624 21.5728 26.9886 15.5044C26.7231 9.60275 21.8543 5.00103 16.0036 5C15.8369 5 15.6682 5.00412 15.4994 5.01132" fill="white"/>
</mask>
<g mask="url(#mask0_37_1203)">
<path d="M4.73999 4.99902H27.2646V27.2614H4.73999V4.99902Z" fill="#0046FF"/>
</g>
</svg>
