<svg width="32" height="32" viewBox="0 0 32 32" fill="none" xmlns="http://www.w3.org/2000/svg">
<g clip-path="url(#clip0_71_3335)">
<path d="M24.7143 5H7.28571C6.02335 5 5 6.02335 5 7.28571V24.7143C5 25.9767 6.02335 27 7.28571 27H24.7143C25.9767 27 27 25.9767 27 24.7143V7.28571C27 6.02335 25.9767 5 24.7143 5Z" fill="#FF2233"/>
<path d="M17.5915 15.7628C17.3972 15.8542 17.0744 15.9628 16.6201 15.9628H14.2058V12.8428H16.4886C16.8801 12.8428 17.2544 12.9028 17.4715 12.997C17.7772 13.1285 17.9915 13.317 18.1286 13.5685C18.2486 13.7885 18.3058 14.0513 18.3058 14.377C18.3058 15.0799 18.0715 15.5342 17.5886 15.7685L17.5915 15.7628ZM20.0286 11.8399C19.6429 11.3513 19.1515 10.9742 18.5429 10.717C18.0801 10.517 17.3686 10.4285 16.8258 10.4285H11.7144V21.2856H14.3515V18.3485H16.8229C17.4715 18.3485 18.2544 18.1999 18.8201 17.9256C19.5801 17.5599 20.1458 16.9199 20.4858 16.1628C20.7229 15.617 20.8572 15.0113 20.8572 14.3742C20.8572 13.4199 20.5601 12.5399 20.0258 11.8428L20.0286 11.8399Z" fill="white"/>
</g>
<defs>
<clipPath id="clip0_71_3335">
<rect width="22" height="22" fill="white" transform="translate(5 5)"/>
</clipPath>
</defs>
</svg>
