<svg width="32" height="32" viewBox="0 0 32 32" fill="none" xmlns="http://www.w3.org/2000/svg">
<path d="M5.94836 17.9447C7.04629 20.6944 8.88582 21.472 8.88582 21.472C3.4729 15.9446 6.77875 9.57573 6.77875 9.57573C7.57774 8.14825 6.56074 7.52578 6.56074 7.52578C8.88582 8.11113 8.15931 10.0516 8.15931 10.0516C6.99073 12.8554 7.22625 15.1329 7.62303 16.5415L8.3894 16.1089L8.37732 16.0907C8.37732 16.0907 6.56194 8.88389 13.966 6.35629L13.972 5H15.5344V13.9318L8.26862 18.1047C8.40088 18.3755 8.54098 18.6304 8.68713 18.8714L15.9849 14.6121L23.3134 18.8714C23.4596 18.6304 23.5997 18.3755 23.7325 18.1047L16.4668 13.9318V5.00061H18.0291L18.0352 6.3569C25.4386 8.8845 23.6232 16.0913 23.6232 16.0913L23.6112 16.1095L24.3775 16.5421C24.7743 15.1335 25.0098 12.856 23.8412 10.0522C23.8412 10.0522 23.1147 8.11235 25.4398 7.52639C25.4398 7.52639 24.4228 8.14885 25.2218 9.57634C25.2218 9.57634 28.5277 15.9452 23.1147 21.4726C23.1147 21.4726 24.9543 20.695 26.0522 17.9453C26.0522 17.9453 26.6748 16.6042 28.4189 16.8975C28.4189 16.8975 27.7607 17.1981 27.3742 18.4132C27.3742 18.4132 25.8034 23.4496 19.7358 24.2181V27H16.7567V22.9001C16.7567 22.9001 19.917 22.8745 22.3296 20.1997L21.5808 19.7592C21.4413 19.8924 19.147 22.0312 16.0181 22.0872V22.0884C16.0121 22.0884 16.006 22.0884 16 22.0884C15.9939 22.0884 15.9879 22.0884 15.9819 22.0884V22.0872C12.8524 22.0312 10.5587 19.8924 10.4192 19.7592L9.67031 20.1997C12.083 22.8745 15.2433 22.9001 15.2433 22.9001V27H12.2641V24.2181C6.19718 23.4496 4.62578 18.4132 4.62578 18.4132C4.23927 17.1981 3.58101 16.8975 3.58101 16.8975C5.32512 16.6048 5.94776 17.9453 5.94776 17.9453L5.94836 17.9447ZM9.83035 15.2863L9.83639 15.293L13.9358 12.9801L13.9581 8.03872H13.9358C13.9358 8.03872 8.99513 9.39318 9.83035 15.2863ZM18.0648 8.03872H18.0424L18.0648 12.9801L22.1642 15.293L22.1702 15.2863C23.006 9.39318 18.0648 8.03872 18.0648 8.03872ZM15.9879 16.4795L11.9012 18.8878V18.8945L11.9374 18.8738C13.3989 20.0372 14.794 20.4218 16 20.4218C17.2066 20.4218 18.6011 20.0366 20.0625 18.8738L20.0988 18.8945V18.8878L15.9873 16.4795H15.9879Z" fill="#08529B"/>
</svg>
