<svg width="32" height="32" viewBox="0 0 32 32" fill="none" xmlns="http://www.w3.org/2000/svg">
<g clip-path="url(#clip0_107_1216)">
<path d="M10.392 14.5233C9.22102 13.9915 8.25795 13.5651 8.25795 12.6992C8.25795 12.0357 8.80682 11.555 9.8875 11.555C10.2864 11.555 10.6119 11.6028 10.9477 11.662C11.1233 11.69 11.3108 11.7147 11.4676 11.7147C12.4136 11.7147 12.9472 11.1698 13.3017 10.1376L13.4483 9.71613C13.2983 9.65687 11.7506 9 9.7375 9C6.53295 9 4.84205 10.9871 4.84205 13.0433C4.84205 14.0837 5.17955 14.8377 5.70625 15.4304C6.38636 16.1926 7.35455 16.6914 8.26307 17.1178C9.58239 17.7434 10.7739 18.2077 10.7739 19.1345C10.7739 19.9593 9.89432 20.4252 8.71648 20.4252C7.10398 20.4252 5.69432 19.5362 5.51534 19.4292L4.1875 21.8262C4.42614 21.953 6.13068 23 8.93636 23C11.9278 22.9984 14.1932 21.3438 14.1932 18.7937C14.1932 16.2436 12.0949 15.3168 10.392 14.5233Z" fill="#EA002C"/>
<path d="M22.0937 15.7069L27.5176 9.27979H23.6534L19.3238 14.8261H19.2607V9.27979H16.075V22.8929H16.2659C17.6448 22.8929 19.2846 22.2756 19.2846 20.0531V16.9284H19.3494L23.7607 22.7217H27.8142L22.0954 15.7069H22.0937Z" fill="#EA002C"/>
</g>
<defs>
<clipPath id="clip0_107_1216">
<rect width="23.625" height="14" fill="white" transform="translate(4.1875 9)"/>
</clipPath>
</defs>
</svg>
