<svg width="32" height="32" viewBox="0 0 32 32" fill="none" xmlns="http://www.w3.org/2000/svg">
<g clip-path="url(#clip0_37_1210)">
<path d="M27.4102 5H5.41016V27H27.4102V5Z" fill="#008CCF"/>
<path d="M5.41016 5L10.9123 10.5022L16.4145 5H5.41016Z" fill="#008CCF"/>
<path d="M5.41016 5V16.0043L10.9123 10.5022L5.41016 5Z" fill="#0095D6"/>
<path d="M16.4145 16.0042L10.9123 10.4934L5.41016 16.0042H16.4145Z" fill="#008CCF"/>
<path d="M16.4145 16.0043V5L10.9124 10.4935L16.4145 16.0043Z" fill="#007AC6"/>
<path d="M16.4146 5V16.0043L21.9081 10.5022L16.4146 5Z" fill="#0067B6"/>
<path d="M27.4102 16.0042L21.9081 10.4934L16.4146 16.0042H27.4102Z" fill="#004294"/>
<path d="M5.41016 16.0044L10.9123 21.4979L16.4145 16.0044H5.41016Z" fill="#007AC6"/>
<path d="M5.41016 16.0044V27.0001L10.9123 21.4979L5.41016 16.0044Z" fill="#0067B6"/>
<path d="M16.4145 27L10.9123 21.4978L5.41016 27H16.4145Z" fill="#005BAC"/>
<path d="M16.4145 27.0001V16.0044L10.9124 21.4979L16.4145 27.0001Z" fill="#004898"/>
<path d="M16.4146 16.0044L21.9081 21.4979L27.4102 16.0044H16.4146Z" fill="#08287F"/>
<path d="M16.4146 16.0044V27.0001L21.9081 21.4979L16.4146 16.0044Z" fill="#004294"/>
<path d="M27.4102 27L21.9081 21.4978L16.4146 27H27.4102Z" fill="#08287F"/>
<path d="M27.4101 27.0001V16.0044L21.908 21.4979L27.4101 27.0001Z" fill="#08287F"/>
<path d="M16.4146 5L21.9081 10.5022L27.4102 5H16.4146Z" fill="#005BAC"/>
<path d="M27.4101 16.0043V5L21.908 10.4935L27.4101 16.0043Z" fill="#004898"/>
<path d="M27.4101 18.751L20.3656 12.0444L9.68188 22.7628L13.5811 26.6533L20.3656 19.9728L27.4101 26.9739V18.751Z" fill="white"/>
</g>
<defs>
<clipPath id="clip0_37_1210">
<rect width="22" height="22" fill="white" transform="translate(5.41016 5)"/>
</clipPath>
</defs>
</svg>
