<svg width="32" height="32" viewBox="0 0 32 32" fill="none" xmlns="http://www.w3.org/2000/svg">
<g clip-path="url(#clip0_72_6143)">
<path d="M1.76698 15.9534C1.71276 15.9845 1.71276 16.0313 1.76698 16.0624L6.24401 19.0368L7.5298 12.9712L1.76698 15.9534Z" fill="#E72410"/>
<path d="M28.2652 12.9712H27.1343C27.0724 12.9712 26.9872 12.9946 26.933 13.0179L21.2631 15.9534C21.2089 15.9768 21.2089 16.0313 21.2631 16.0624L25.6627 18.9745C25.7091 19.0057 25.8021 19.029 25.8563 19.029H26.9872C27.0491 19.029 27.0491 19.0057 27.0027 18.9745L22.5101 16.0079L28.2807 13.0179C28.3349 12.9868 28.3272 12.9712 28.2652 12.9712Z" fill="#F08300"/>
<path d="M25.8407 12.9712H17.9555L16.6775 19.0368H24.5626C24.6246 19.0368 24.6246 19.0135 24.5781 18.9823L20.0934 16.0157L25.8562 13.0257C25.9027 12.9946 25.9027 12.979 25.8407 12.979V12.9712Z" fill="#E72410"/>
<path d="M30.6817 12.9712H29.5508C29.4889 12.9712 29.4037 12.9946 29.3495 13.0179L23.6796 15.9534C23.6254 15.9768 23.6254 16.0313 23.6796 16.0624L28.0792 18.9745C28.1256 19.0057 28.2186 19.029 28.2728 19.029H29.4037C29.4656 19.029 29.4734 19.0057 29.4192 18.9745L24.9344 16.0079L30.6972 13.0179C30.7514 12.9868 30.7437 12.9712 30.6817 12.9712Z" fill="#FABE00"/>
<path d="M25.4921 9H6.93332C5.89539 9 5.17504 9.65406 5.00463 10.4638C4.91168 10.9077 5.08209 11.3048 5.4229 11.5773L12.092 16L25.4998 9.04672C25.554 9.02336 25.5463 9 25.4921 9Z" fill="#E72410"/>
<path d="M22.5488 22.9455L12.0921 16L3.54853 20.4305C3.09153 20.6952 2.75846 21.1001 2.66552 21.5439C2.49511 22.3537 2.93662 23.0078 3.97454 23.0078H22.5333C22.5953 23.0078 22.5953 22.9844 22.5488 22.9533V22.9455Z" fill="#E72410"/>
</g>
<defs>
<clipPath id="clip0_72_6143">
<rect width="29" height="14" fill="white" transform="translate(1.72827 9)"/>
</clipPath>
</defs>
</svg>
