<svg width="32" height="32" viewBox="0 0 32 32" fill="none" xmlns="http://www.w3.org/2000/svg">
<path d="M4.04829 16.6211C2.78147 16.6211 1.92871 17.6148 1.92871 19.1043C1.92871 20.5938 2.78172 21.5874 4.04829 21.5874C5.05879 21.5874 5.88099 20.9075 6.06732 19.8563H5.10735C4.9676 20.3983 4.609 20.7857 4.07639 20.7857C3.31383 20.7857 2.84629 20.0899 2.84629 19.0734C2.84629 18.0568 3.31457 17.3611 4.07639 17.3611C4.609 17.3611 4.9676 17.7491 5.10735 18.2904H6.0545C5.84772 17.2757 5.04006 16.6211 4.04829 16.6211Z" fill="#167BFF"/>
<path d="M14.2917 11.6545C13.6478 11.6545 13.255 11.9785 13.0858 12.1679C12.8534 11.8023 12.4688 11.6545 12.0173 11.6545C11.5472 11.6545 11.2256 11.8523 11.0398 12.0155V11.7425H10.2058V15.3793H11.0398V13.3007C11.0398 12.7878 11.2712 12.3345 11.7897 12.3118C12.2933 12.29 12.4797 12.6876 12.4797 13.0665V15.3782H13.3134V13.2996C13.3134 12.7867 13.5451 12.3334 14.0636 12.3108C14.5586 12.2892 14.7472 12.6751 14.7528 13.0483V15.3777H15.586V12.9736C15.5865 12.0576 14.9786 11.6545 14.2917 11.6545Z" fill="#167BFF"/>
<path d="M21.7255 13.5548C21.7255 13.9734 21.625 14.7311 20.9265 14.7311C20.3282 14.7311 20.207 14.2482 20.207 13.9201V11.6545H19.3108V14.0562C19.3108 14.9104 19.8533 15.3793 20.6528 15.3793C21.1159 15.3793 21.4841 15.2133 21.7255 14.9601V15.2916H22.6217V11.6545H21.7255V13.5548Z" fill="#167BFF"/>
<path d="M24.9659 11.6545C24.4493 11.6545 24.1226 11.8526 23.9241 12.0368V11.7422H23.0356V15.379H23.9241V13.3004C23.9241 12.7875 24.1877 12.3337 24.74 12.3116C25.2669 12.2905 25.4511 12.6876 25.4573 13.0615V15.3793H26.3465V12.9502C26.3465 12.1084 25.699 11.6545 24.9659 11.6545Z" fill="#167BFF"/>
<path d="M17.7965 13.2077C17.1571 13.0392 16.9178 12.9181 16.9178 12.6817C16.9178 12.4155 17.2047 12.266 17.5002 12.2847C17.8538 12.3069 18.0472 12.4948 18.0939 12.7567H18.8397C18.7855 12.1337 18.2684 11.6545 17.4605 11.6545C16.7141 11.6545 16.0838 12.0717 16.0952 12.73C16.1032 13.1925 16.4084 13.4815 16.8555 13.658C17.344 13.8506 18.0027 13.9216 18.0602 14.251C18.1178 14.5804 17.7929 14.7641 17.4249 14.7222C17.1065 14.6858 16.9256 14.5229 16.8413 14.2415H16C16.1399 14.9754 16.6966 15.3793 17.4872 15.3793C18.3202 15.3793 18.911 14.8809 18.8968 14.2331C18.8809 13.5174 18.1343 13.2971 17.7965 13.2077Z" fill="#167BFF"/>
<path d="M29.2452 12.0466V12.0547C29.0097 11.808 28.6931 11.6545 28.2911 11.6545C27.3049 11.6545 26.7603 12.3616 26.7603 13.4436C26.7603 14.5257 27.3049 15.233 28.2911 15.233C28.6983 15.233 29.0179 15.0752 29.2542 14.8231V14.9834C29.2542 15.4677 29.0753 15.8965 28.5102 15.9293C27.899 15.9648 27.7208 15.5524 27.6972 15.4631H26.8845C26.9906 16.0219 27.4585 16.6209 28.4543 16.6209C29.5148 16.6209 30.0711 15.8664 30.0711 14.8621V11.7779H29.2452V12.0466ZM28.3972 14.5662C27.865 14.5565 27.5869 14.0936 27.5869 13.4447C27.5869 12.7878 27.8707 12.3211 28.4141 12.3211C28.9575 12.3211 29.234 12.7931 29.234 13.4398C29.233 14.0791 28.9307 14.5565 28.3972 14.5662Z" fill="#167BFF"/>
<path d="M8.58412 12.0398V12.0478C8.35783 11.8053 8.02957 11.6545 7.64284 11.6545C6.69467 11.6545 6.06738 12.4174 6.06738 13.5169C6.06738 14.6164 6.69467 15.3793 7.64284 15.3793C8.02957 15.3793 8.35783 15.2283 8.58412 14.986V14.994V15.2582H9.37827V11.7757H8.58412V12.0398ZM7.72841 14.7251C7.20548 14.7251 6.86129 14.2416 6.86129 13.5169C6.86129 12.7922 7.20595 12.3085 7.72841 12.3085C8.25087 12.3085 8.57152 12.8495 8.57152 13.5169C8.57152 14.1843 8.25158 14.7251 7.72913 14.7251H7.72841Z" fill="#167BFF"/>
<path d="M15.5202 18.1136V18.1219C15.2656 17.8696 14.8963 17.7128 14.4612 17.7128C13.3947 17.7128 12.689 18.5063 12.689 19.6501C12.689 20.7939 13.3947 21.5874 14.4612 21.5874C14.8963 21.5874 15.2656 21.4303 15.5202 21.1783V21.1866V21.4614H16.4137V16.6211H15.5202V18.1136ZM14.5575 20.9069C13.9691 20.9069 13.5822 20.404 13.5822 19.6501C13.5822 18.8962 13.9697 18.393 14.5575 18.393C15.1453 18.393 15.5061 18.9558 15.5061 19.6501C15.5061 20.3444 15.1464 20.9069 14.5583 20.9069H14.5575Z" fill="#167BFF"/>
<path d="M8.99794 18.2478V18.2558C8.77165 18.0133 8.44339 17.8625 8.05666 17.8625C7.10849 17.8625 6.4812 18.6254 6.4812 19.7249C6.4812 20.8245 7.10849 21.5873 8.05666 21.5873C8.44339 21.5873 8.77165 21.4363 8.99794 21.194V21.202V21.4662H9.79209V17.9837H8.99794V18.2478ZM8.14223 20.9331C7.6193 20.9331 7.27511 20.4496 7.27511 19.7249C7.27511 19.0002 7.61977 18.5165 8.14223 18.5165C8.66469 18.5165 8.98534 19.0575 8.98534 19.7249C8.98534 20.3923 8.6654 20.9331 8.14294 20.9331H8.14223Z" fill="#167BFF"/>
<path d="M4.06911 12.4999C3.23647 12.2522 3.08035 12.0289 3.04809 11.756C3.014 11.4707 3.23023 11.0911 3.78887 11.0911C4.34752 11.0911 4.53851 11.4934 4.5817 11.7197H5.53247C5.4133 10.8283 4.67563 10.4128 3.79226 10.4128C2.90888 10.4128 2.05621 10.8823 2.05621 11.78C2.05621 12.6376 2.8022 12.9403 3.6174 13.2018C4.38967 13.4506 4.67849 13.6054 4.67849 13.9926C4.67849 14.3483 4.36001 14.6499 3.86121 14.6499C3.36241 14.6499 3.01894 14.4555 2.88885 14.0244H1.92871C2.00677 14.5228 2.48658 15.3792 3.77821 15.3792C5.04719 15.3792 5.65346 14.6729 5.65346 13.9162C5.65424 13.0566 4.86948 12.739 4.06911 12.4999Z" fill="#167BFF"/>
<path d="M11.9417 17.9997C11.7385 18.0909 11.5855 18.2139 11.4828 18.3686V17.9108H10.6199V21.5873H11.4828C11.4828 21.5873 11.4869 20.2727 11.4843 20.0614C11.481 19.7846 11.463 19.5027 11.5856 19.2455C11.7861 18.8247 12.2437 18.5943 12.6892 18.6069V17.8691C12.6455 17.8646 12.6017 17.8625 12.5578 17.8626C12.3451 17.8622 12.1348 17.909 11.9417 17.9997Z" fill="#167BFF"/>
</svg>
