<svg width="32" height="32" viewBox="0 0 32 32" fill="none" xmlns="http://www.w3.org/2000/svg">
<path fill-rule="evenodd" clip-rule="evenodd" d="M25.8068 15.2398C23.904 15.6225 23.2052 16.7183 22.7042 16.4638C22.2667 16.1073 22.7451 14.0788 22.8483 13.2628C22.9816 12.1933 21.5421 11.5403 21.0508 12.8527C20.6445 14.163 20.8358 18.7994 20.9261 19.6185C21.0218 20.4977 22.5613 20.463 22.7236 19.6995C22.772 19.4598 22.8967 18.9571 23.2546 18.2546C24.7909 15.3586 28.1503 16.6331 27.8203 18.6658C27.2516 21.7785 21.4766 21.7122 20.7154 21.0487C19.5759 20.2379 15.9671 17.8435 12.4797 15.5731C12.484 15.4122 12.4904 15.2398 12.498 15.0789C17.3495 12.2438 22.2366 9.37406 22.8483 8.8367C23.8126 7.97966 22.7451 6.45382 21.5077 7.43284C20.6821 8.09534 16.7637 10.6465 12.6259 13.267C12.9075 10.1007 13.4085 8.28042 13.6289 7.44441C14.0385 5.88702 11.8089 5.30339 11.4294 6.87445C10.8005 9.46449 10.4522 11.9157 10.2802 14.1535C7.92589 12.6445 5.90807 11.37 5.1491 10.9672C2.95175 9.79154 2.72277 11.9494 3.59784 12.3563C4.0171 12.5572 6.23702 13.8969 8.96006 15.571C6.2209 17.2861 3.77414 18.7783 2.54109 19.486C1.72192 20.1559 2.42714 21.0487 3.27103 20.5513C4.62664 19.6995 7.25507 18.1547 10.1576 16.4512C10.0458 20.9919 10.6822 24.2791 11.1811 25.3023C11.8325 26.6179 12.9054 26.0437 12.7334 24.8102C12.5012 22.0845 12.4163 19.729 12.4259 17.7089C16.6325 20.3084 20.8229 22.9268 21.2153 23.1708C22.1904 23.7775 23.0912 23.0856 23.1751 22.5966C26.5679 22.2801 28.9243 21.6891 29.6822 19.0055C30.4616 16.2619 27.8267 14.8349 25.8068 15.2398Z" fill="#FCB813"/>
</svg>
