<svg width="32" height="32" viewBox="0 0 32 32" fill="none" xmlns="http://www.w3.org/2000/svg">
<rect x="5.23071" y="5" width="22" height="22" rx="1.29859" fill="#FFE300"/>
<g clip-path="url(#clip0_71_3336)">
<path d="M25.1244 5H7.69587C6.43351 5 5.41016 6.02335 5.41016 7.28571V24.7143C5.41016 25.9767 6.43351 27 7.69587 27H25.1244C26.3868 27 27.4102 25.9767 27.4102 24.7143V7.28571C27.4102 6.02335 26.3868 5 25.1244 5Z" fill="#FFE300"/>
<path fill-rule="evenodd" clip-rule="evenodd" d="M16.8162 8.42261C12.2853 8.42261 8.61133 11.3232 8.61133 14.9038C8.61133 17.2041 10.1329 19.2234 12.418 20.3758L11.645 23.262C11.6307 23.3044 11.6287 23.3499 11.6392 23.3934C11.6496 23.437 11.6721 23.4766 11.7041 23.5079C11.7441 23.5496 11.7985 23.5743 11.8562 23.5771C11.9139 23.5799 11.9704 23.5604 12.0142 23.5228L15.3388 21.277C15.8281 21.3481 16.3218 21.3843 16.8162 21.3853C21.3475 21.3853 25.0215 18.4843 25.0215 14.9022C25.0215 11.3202 21.3475 8.42261 16.8162 8.42261Z" fill="#1C1C1C"/>
</g>
<defs>
<clipPath id="clip0_71_3336">
<rect width="22" height="22" fill="white" transform="translate(5.41016 5)"/>
</clipPath>
</defs>
</svg>
