<svg width="32" height="32" viewBox="0 0 32 32" fill="none" xmlns="http://www.w3.org/2000/svg">
<path d="M22.1683 16.3845C22.8287 16.3994 23.4928 16.3542 24.1506 16.408C24.8167 16.5374 24.9772 17.5869 24.3854 17.9306C23.9817 18.1571 23.502 18.015 23.0643 18.0549H22.1683V16.3845V16.3845ZM24.5324 14.4938C24.6791 15.0328 24.1799 15.5168 23.6811 15.4425H22.1683C22.179 14.9342 22.1476 14.3825 22.1837 13.901C22.7897 13.9188 23.4013 13.8648 24.0039 13.9292C24.2627 13.9969 24.4794 14.2184 24.5324 14.4938V14.4938ZM28.1731 6.50053C28.2013 7.52989 28.1772 8.61366 28.1853 9.6639C28.1834 13.9338 28.1892 18.2036 28.1821 22.4738C28.1555 24.074 26.7929 25.4645 25.266 25.4964C23.7377 25.5029 22.2091 25.4974 20.6806 25.4992V19.044C22.346 19.0351 24.0123 19.0622 25.677 19.0305C26.4493 18.98 27.2952 18.4496 27.3312 17.5651C27.4221 16.6767 26.6174 16.0622 25.8534 15.9652C25.5597 15.9573 25.5683 15.8761 25.8534 15.8407C26.5821 15.6768 27.1543 14.8918 26.9399 14.1056C26.7572 13.2788 25.8791 12.9587 25.1488 12.9603C23.6596 12.9498 22.1701 12.9589 20.6809 12.9558C20.6905 11.7507 20.6609 10.5443 20.6969 9.34006C20.8149 7.76869 22.2118 6.47282 23.7172 6.50094C25.2027 6.5007 26.688 6.5007 28.1731 6.50064V6.50053Z" fill="url(#paint0_linear_37_1217)"/>
<path d="M3.85211 9.50285C3.89014 7.90513 5.25856 6.52604 6.78346 6.50269C8.30615 6.49781 9.82907 6.50199 11.3518 6.50057C11.3476 11.8462 11.36 17.1924 11.3455 22.5377C11.2868 24.116 9.93333 25.4688 8.42505 25.4968C6.89947 25.5025 5.37373 25.4976 3.8481 25.4992V18.8264C5.32999 19.1907 6.88399 19.3458 8.39577 19.1042C9.29944 18.9528 10.2882 18.4909 10.5941 17.5151C10.8193 16.6805 10.6925 15.802 10.726 14.9453V12.9558H8.10971C8.09796 14.2717 8.13379 15.5898 8.09078 16.904C8.02026 17.7118 7.25165 18.225 6.51966 18.1976C5.61187 18.2076 3.81295 17.5128 3.81295 17.5128C3.80843 15.0476 3.83928 11.9602 3.85211 9.50309V9.50285Z" fill="url(#paint1_linear_37_1217)"/>
<path d="M12.3274 13.7584C12.1897 13.7888 12.2997 13.2701 12.2645 13.0734C12.2739 11.8294 12.2449 10.5841 12.2805 9.34094C12.3982 7.76293 13.8058 6.46383 15.3173 6.50077H19.7685C19.7643 11.8464 19.7767 17.1926 19.7622 22.5379C19.7035 24.1162 18.3499 25.469 16.8416 25.497C15.316 25.503 13.7902 25.4979 12.2644 25.4994V18.1884C13.3064 19.0783 14.7227 19.2168 16.0208 19.2192C16.9995 19.2189 17.9724 19.0618 18.9228 18.8269V17.4875C17.8518 18.0431 16.5927 18.396 15.4054 18.0768C14.5772 17.8622 13.976 17.0291 13.9894 16.1395C13.8934 15.2144 14.4145 14.2377 15.2879 13.9626C16.3724 13.6093 17.5544 13.8795 18.571 14.339C18.7888 14.4577 19.0099 14.6049 18.9228 14.226V13.1732C17.2226 12.7522 15.4132 12.5973 13.7051 13.0553C13.2107 13.2004 12.729 13.4206 12.3274 13.7585V13.7584Z" fill="url(#paint2_linear_37_1217)"/>
<defs>
<linearGradient id="paint0_linear_37_1217" x1="20.6293" y1="15.5937" x2="28.1379" y2="15.5937" gradientUnits="userSpaceOnUse">
<stop stop-color="#007B40"/>
<stop offset="1" stop-color="#55B330"/>
</linearGradient>
<linearGradient id="paint1_linear_37_1217" x1="3.68845" y1="16.1818" x2="11.2287" y2="16.1818" gradientUnits="userSpaceOnUse">
<stop stop-color="#1D2970"/>
<stop offset="1" stop-color="#006DBA"/>
</linearGradient>
<linearGradient id="paint2_linear_37_1217" x1="12.2534" y1="15.7779" x2="19.7671" y2="15.7779" gradientUnits="userSpaceOnUse">
<stop stop-color="#6E2B2F"/>
<stop offset="1" stop-color="#E30138"/>
</linearGradient>
</defs>
</svg>
