<svg width="32" height="32" viewBox="0 0 32 32" fill="none" xmlns="http://www.w3.org/2000/svg">
<g clip-path="url(#clip0_107_1229)">
<path d="M12.412 17.5415L16.976 11.9881H14.4878C13.3743 11.9881 12.6113 12.3284 11.9308 13.111L9.53198 16.0306V8H7.12624C6.55574 8 6.09521 8.45598 6.09521 9.02084V24H8.50095C9.06458 24 9.53198 23.544 9.53198 22.986V18.9979L11.4772 21.3662L13.1406 23.3875C13.4774 23.8026 13.9104 24 14.3641 24H17.7252L15.5532 21.3594L12.412 17.5415ZM22.9491 21.1757C22.4474 21.1757 22.0281 20.7605 22.0281 20.2569V8H19.6155C19.045 8 18.5844 8.45598 18.5844 9.01404V20.8966C18.5844 22.7342 19.8629 24 21.7256 24H24.3719C24.9424 24 25.403 23.5508 25.403 22.986V21.1757H22.9491Z" fill="#221E1F"/>
<path d="M25.9049 11.0964L25.6918 11.321C25.6918 11.321 25.032 11.9744 23.183 11.9744H14.4261C13.0445 11.9744 12.3915 12.5324 11.8966 13.1381L11.6217 13.4716C11.6217 13.4716 11.6079 13.4852 11.6011 13.492L9.86206 15.6154C10.4944 15.1458 11.3605 14.8599 12.2403 14.8599H23.183C24.4614 14.8599 25.6781 14.4924 25.8636 13.5941C25.9049 13.458 25.898 13.3559 25.898 13.3559V11.0964H25.9049Z" fill="#ED1B23"/>
</g>
<defs>
<clipPath id="clip0_107_1229">
<rect width="19.8095" height="16" fill="white" transform="translate(6.09521 8)"/>
</clipPath>
</defs>
</svg>
