<svg width="32" height="32" viewBox="0 0 32 32" fill="none" xmlns="http://www.w3.org/2000/svg">
<g clip-path="url(#clip0_107_1216)">
<path d="M9.59091 14.3123C8.2526 13.7046 7.15195 13.2173 7.15195 12.2277C7.15195 11.4694 7.77922 10.92 9.01428 10.92C9.47013 10.92 9.84221 10.9746 10.226 11.0423C10.4266 11.0743 10.6409 11.1025 10.8201 11.1025C11.9013 11.1025 12.511 10.4798 12.9162 9.30009L13.0838 8.81844C12.9123 8.75071 11.1435 8 8.84286 8C5.18052 8 3.24805 10.2709 3.24805 12.6209C3.24805 13.81 3.63377 14.6717 4.23571 15.349C5.01299 16.2201 6.11948 16.7902 7.15779 17.2775C8.66558 17.9925 10.0273 18.523 10.0273 19.5823C10.0273 20.5249 9.02208 21.0574 7.67597 21.0574C5.83312 21.0574 4.22208 20.0414 4.01753 19.9191L2.5 22.6585C2.77273 22.8034 4.72078 24 7.92727 24C11.3461 23.9981 13.9351 22.1072 13.9351 19.1929C13.9351 16.2785 11.537 15.2192 9.59091 14.3123Z" fill="#EA002C"/>
<path d="M22.9643 15.6651L29.163 8.31982H24.7467L19.7987 14.6585H19.7266V8.31982H16.0857V23.8777H16.3039C17.8798 23.8777 19.7539 23.1721 19.7539 20.6321V17.0611H19.8279L24.8695 23.682H29.5019L22.9662 15.6651H22.9643Z" fill="#EA002C"/>
</g>
<defs>
<clipPath id="clip0_107_1216">
<rect width="27" height="16" fill="white" transform="translate(2.5 8)"/>
</clipPath>
</defs>
</svg>
