<svg width="66" height="65" viewBox="0 0 66 65" fill="none" xmlns="http://www.w3.org/2000/svg">
<g clip-path="url(#clip0_73_1212)">
<g clip-path="url(#clip1_73_1212)">
<path d="M7.99173 2.91223H54.2114V59.8861L49.4113 62.6411H4.08081L7.99156 53.9309L7.99173 2.91223Z" fill="white"/>
<path d="M65.1502 17.6641H53.0173V7.4075C53.0173 3.87396 55.7376 0.99646 59.0838 0.99646C62.4299 0.99646 65.1502 3.87129 65.1502 7.4075V17.6641ZM55.4449 15.0986H62.7251V7.4075C62.7251 5.28738 61.0924 3.56194 59.0863 3.56194C57.0801 3.56194 55.4474 5.28738 55.4474 7.4075V15.1013L55.4449 15.0986Z" fill="black"/>
<path d="M58.1173 64.322L56.1919 62.7619C57.3073 61.2232 57.8725 59.4231 57.8725 57.4096V38.1765H60.3001V57.4096C60.3001 59.9991 59.5658 62.3273 58.1198 64.322H58.1173Z" fill="black"/>
<path d="M60.2999 33.0488H57.8723V35.6143H60.2999V33.0488Z" fill="black"/>
<path d="M49.3786 63.8214H0.849854L3.76446 59.7172C5.0161 57.9518 5.705 55.7676 5.705 53.5622V7.4075C5.705 3.87129 8.4253 0.99646 11.7689 0.99646H59.0839V3.56194H11.7689C9.76274 3.56194 8.13005 5.28738 8.13005 7.4075V53.5648C8.13005 56.3197 7.26955 59.0505 5.70248 61.2586H49.3786C51.3848 61.2586 53.0175 59.5332 53.0175 57.4131V16.3814H55.4451V57.4104C55.4451 60.9439 52.7248 63.8214 49.3786 63.8214Z" fill="black"/>
<path d="M43.1846 34.0206V45.5937H19.156V20.7942H36.7769" stroke="#3661CE" stroke-width="3" stroke-linecap="round" stroke-linejoin="round"/>
<path d="M24.7151 33.0268L30.8023 39.3093L44.9952 22.115" stroke="#3661CE" stroke-width="3" stroke-linecap="round" stroke-linejoin="round"/>
</g>
</g>
<defs>
<clipPath id="clip0_73_1212">
<rect width="66" height="65" fill="white"/>
</clipPath>
<clipPath id="clip1_73_1212">
<rect width="66" height="63.6842" fill="white" transform="translate(0 0.815796)"/>
</clipPath>
</defs>
</svg>
