<svg width="137" height="40" viewBox="0 0 137 40" fill="none" xmlns="http://www.w3.org/2000/svg">
<g clip-path="url(#clip0_27_23)">
<path d="M42.3131 13.6316C37.4259 11.721 32.491 11.9263 31.2387 14.1632C29.9758 16.4158 31.8171 21.7579 35.2874 26.1895C38.7631 30.621 43.6715 30.4737 46.3778 25.6368C49.0416 20.8105 47.1843 15.5368 42.3078 13.6316" fill="#FF9700"/>
<path d="M17.4633 15.1737C21.7986 18.1106 26.654 19 28.3732 17.0948C30.1084 15.1737 29.5088 9.56847 27.1156 4.48426C24.7224 -0.599955 19.9042 -1.5368 16.1792 2.58425C12.5018 6.70004 13.1333 12.2527 17.458 15.179" fill="#006ECD"/>
<path d="M33.0004 30.6369C32.3052 25.4737 29.7263 21.2948 27.1474 21.3001C24.5473 21.3001 20.7373 25.4948 18.5246 30.6579C16.3118 35.8211 18.827 40.0053 24.4093 40.0001C29.9545 39.9632 33.6955 35.7843 33.0057 30.6369" fill="#EF151E"/>
<path d="M13.2129 17.2106C12.3267 17.2106 11.7324 17.7527 11.7324 18.5579V19.3685H13.8337C13.8337 19.3685 13.9027 26.2422 13.8231 26.9632C13.7435 27.6843 13.5578 28.8579 12.263 29.4685C11.1434 30 11.1222 30.5 11.0479 30.9474C10.9577 31.5264 11.0638 31.6 11.4883 31.4948C13.1545 31.0895 14.9321 30.4264 15.8342 28.7895C16.3224 27.9 16.5187 26.9369 16.5187 25.479V19.3685C17.4102 19.3579 18.0523 18.7948 18.0523 18.0211V17.2106H13.2182H13.2129Z" fill="black"/>
<path d="M10.8781 26.479C10.8781 26.479 9.19064 28.8738 5.92192 28.8738C2.65319 28.8738 0 26.3106 0 22.9159C0 19.5211 2.54175 16.8738 5.92192 16.8738C9.30208 16.8738 10.8356 19.2685 10.8356 19.2685C10.8356 19.2685 9.93354 20.2211 9.0739 20.2211C8.6547 20.2211 8.33632 20.0264 7.97548 19.8054C7.4873 19.5054 6.93543 19.1685 5.92722 19.1685C4.00631 19.1685 2.44624 20.8475 2.44624 22.9159C2.44624 24.9843 4.00631 26.5843 5.92722 26.5843C7.06809 26.5843 7.60404 26.258 8.0763 25.9738C8.41061 25.7685 8.72899 25.579 9.19064 25.579C10.1617 25.579 10.8887 26.4843 10.8887 26.4843L10.8781 26.479Z" fill="black"/>
<path d="M94.2412 20.4526V18.0579C94.2412 17.6842 94.3314 17.3895 94.5172 17.1789C94.7029 16.9684 94.9735 16.8684 95.3237 16.8684H96.0932V27.6842C96.0932 28.0684 95.9976 28.3631 95.8119 28.5684C95.6209 28.7737 95.3609 28.8737 95.0213 28.8737H94.2359V25.2895C93.7318 25.3895 93.1375 25.4684 92.453 25.521C91.7738 25.5737 90.9619 25.6 90.0121 25.6H87.9426V18.5579C87.9426 18.1842 88.0328 17.8895 88.2079 17.6789C88.383 17.4684 88.6483 17.3684 89.0038 17.3684H89.7733V24.4105H91.4182C91.7738 24.4105 92.1983 24.3895 92.7024 24.3474C93.2012 24.3053 93.7159 24.2474 94.2359 24.1737V20.4526H94.2412ZM98.8525 27.6842C98.8525 28.0684 98.7623 28.3631 98.5819 28.5684C98.4014 28.7737 98.1414 28.8737 97.8018 28.8737H96.9952V18.0579C96.9952 17.6842 97.0908 17.3895 97.2818 17.1789C97.4728 16.9684 97.7381 16.8684 98.083 16.8684H98.8525V27.6842Z" fill="black"/>
<path d="M103.437 23.5263H110.84V24.1158C110.84 24.2579 110.808 24.3789 110.749 24.4632C110.686 24.5474 110.622 24.6105 110.553 24.6579C110.473 24.7105 110.404 24.7368 110.33 24.7474C110.261 24.7579 110.213 24.7632 110.187 24.7632H101.522V18.7684C101.522 18.3684 101.675 18.021 101.989 17.7421C102.302 17.4631 102.673 17.321 103.114 17.321H110.824V17.9C110.824 18.0526 110.797 18.1737 110.739 18.2579C110.68 18.3421 110.617 18.4053 110.537 18.4526C110.468 18.4947 110.399 18.521 110.33 18.5263C110.261 18.5368 110.213 18.5368 110.187 18.5368H103.432V20.4368H110.728V21.0263C110.728 21.1789 110.702 21.3 110.643 21.3789C110.585 21.4579 110.521 21.521 110.442 21.5632C110.373 21.6053 110.304 21.6316 110.235 21.6421C110.166 21.6526 110.118 21.6579 110.091 21.6579H103.427V23.5316L103.437 23.5263Z" fill="black"/>
<path d="M123.564 23.6474C123.564 24.0316 123.469 24.3264 123.283 24.5316C123.092 24.7369 122.832 24.8369 122.492 24.8369H121.707V24.4474H119.128V23.8685C119.128 23.7369 119.155 23.6264 119.202 23.5421C119.25 23.4579 119.314 23.4 119.378 23.3685C119.452 23.3264 119.526 23.3 119.59 23.2895C119.659 23.279 119.707 23.2685 119.744 23.2685H121.702V22.6158C121.139 22.7421 120.513 22.8421 119.823 22.9211C119.139 23 118.438 23.0527 117.733 23.079V23.6316C117.733 24.0158 117.642 24.3106 117.457 24.5158C117.271 24.7211 117.011 24.8211 116.687 24.8211H115.875V23.0895H112.262V22.5369C112.262 22.4053 112.288 22.2948 112.336 22.2106C112.384 22.1264 112.447 22.0632 112.511 22.0264C112.58 21.9737 112.644 21.9421 112.713 21.9316C112.782 21.9211 112.835 21.9106 112.877 21.9106H116.793C117.542 21.9106 118.359 21.8843 119.24 21.8264C120.115 21.7685 120.938 21.6737 121.696 21.5474V18.0632C121.696 17.6843 121.781 17.3948 121.962 17.1843C122.137 16.9737 122.402 16.8685 122.758 16.8685H123.554V23.6369L123.564 23.6474ZM120.508 19.1C120.508 19.4685 120.412 19.8106 120.221 20.1264C120.03 20.4421 119.776 20.7211 119.457 20.9527C119.128 21.1948 118.746 21.3843 118.311 21.5158C117.881 21.6474 117.414 21.7158 116.926 21.7158C116.438 21.7158 115.966 21.6474 115.536 21.5158C115.106 21.3843 114.729 21.1948 114.4 20.9527C114.082 20.7211 113.827 20.4421 113.641 20.1264C113.456 19.8106 113.365 19.4685 113.365 19.1C113.365 18.7316 113.456 18.4 113.641 18.0843C113.827 17.7685 114.082 17.4895 114.4 17.2579C114.729 17.0158 115.106 16.8264 115.536 16.6895C115.966 16.5527 116.427 16.4843 116.926 16.4843C117.425 16.4843 117.876 16.5527 118.311 16.6895C118.746 16.8264 119.128 17.0158 119.457 17.2579C119.776 17.4895 120.03 17.7685 120.221 18.0843C120.412 18.4 120.508 18.7421 120.508 19.1ZM123.554 27.6843C123.554 28.0685 123.458 28.3632 123.267 28.5685C123.076 28.7737 122.816 28.8737 122.476 28.8737H121.691V26.3421H114.214V25.779C114.214 25.6369 114.241 25.5264 114.289 25.4421C114.337 25.3579 114.395 25.2948 114.464 25.2527C114.538 25.2106 114.612 25.1843 114.681 25.1685C114.745 25.1579 114.798 25.1474 114.83 25.1474H123.548V27.679L123.554 27.6843ZM118.667 19.1C118.667 18.7 118.497 18.3527 118.162 18.0685C117.828 17.779 117.42 17.6369 116.937 17.6369C116.703 17.6369 116.48 17.679 116.268 17.7579C116.056 17.8369 115.875 17.9421 115.727 18.079C115.568 18.2106 115.44 18.3685 115.355 18.5421C115.265 18.7158 115.223 18.9053 115.223 19.1053C115.223 19.3053 115.27 19.5106 115.355 19.6895C115.446 19.8685 115.568 20.0264 115.727 20.1579C115.875 20.2895 116.061 20.3948 116.268 20.4685C116.48 20.5421 116.703 20.5843 116.937 20.5843C117.42 20.5843 117.828 20.4421 118.162 20.1527C118.497 19.8632 118.667 19.5158 118.667 19.1053V19.1Z" fill="black"/>
<path d="M57.4362 21.8632C59.0812 21.5527 60.3016 20.4053 60.3016 19.0369C60.3016 17.4264 58.6248 16.1211 56.5553 16.1211C54.4858 16.1211 52.8037 17.4264 52.8037 19.0369C52.8037 20.4053 54.0242 21.5579 55.6692 21.8632V22.3316H51.2436C51.1163 22.3316 50.6228 22.3737 50.6228 22.9527V23.5211H61.8617C61.9891 23.5211 62.4772 23.479 62.4772 22.9V22.3316H57.4362V21.8632ZM54.6556 19.0316C54.6556 18.0316 55.5047 17.2211 56.55 17.2211C57.5954 17.2211 58.4444 18.0316 58.4444 19.0316C58.4444 20.0316 57.5954 20.8421 56.55 20.8421C55.5047 20.8421 54.6556 20.0316 54.6556 19.0316Z" fill="black"/>
<path d="M75.2603 26.7895V27.3579H86.669C86.7964 27.3579 87.2899 27.3158 87.2899 26.7421V26.1737H75.8812C75.7538 26.1737 75.2603 26.2158 75.2603 26.7948V26.7895Z" fill="black"/>
<path d="M85.7776 22.8526V17.2842H84.9869C84.2971 17.2842 83.9203 17.7105 83.9203 18.4737V19.5158H78.6193V17.2789H77.8286C77.1388 17.2789 76.7567 17.7052 76.7567 18.4684V24.2474H84.2175C85.0771 24.2474 85.7722 23.621 85.7722 22.8421L85.7776 22.8526ZM83.9203 23.0631H78.6193V20.7105H83.9203V23.0631Z" fill="black"/>
<path d="M53.8703 27.1H59.7445C60.4184 27.1 60.9702 26.6105 60.9702 26.0158V24.1316H52.6339C52.5066 24.1316 52.0131 24.1737 52.0131 24.7526V25.3211H59.1077V25.9105H53.085C52.3951 25.9105 52.0131 26.3369 52.0131 27.1053V28.8895H60.4661C60.5935 28.8895 61.0817 28.8474 61.0817 28.2684V27.7H53.865V27.1H53.8703Z" fill="black"/>
<path d="M72.05 18.0842V24.1684C70.6332 24.5526 68.7919 24.679 67.9641 24.679H65.7248V22.0263H69.0731C69.7629 22.0263 70.1397 21.6 70.1397 20.8369V17.3421H64.4937C64.3663 17.3421 63.8729 17.3842 63.8729 17.9632V18.5369H68.2878V20.8421H64.9394C64.2496 20.8421 63.8676 21.2632 63.8729 22.0316V25.879H66.5526C69.365 25.879 70.9675 25.5369 72.0553 25.1684V28.8947H72.8459C73.5358 28.8947 73.9125 28.4737 73.9125 27.7053V16.9053H73.1272C72.4373 16.9053 72.0553 17.3263 72.0553 18.0947L72.05 18.0842Z" fill="black"/>
<path d="M94.2412 21.6632H91.6146V21.1105C91.6146 20.9579 91.6411 20.8474 91.6889 20.7632C91.7419 20.6842 91.8003 20.6263 91.8693 20.5842C91.933 20.5421 92.0019 20.5158 92.0709 20.5105C92.1346 20.5 92.193 20.5 92.2354 20.5H94.2465V21.6632H94.2412Z" fill="black"/>
<path d="M125.597 25.979C125.469 25.979 124.976 26.0211 124.976 26.5948V27.1632H136.384C136.512 27.1632 137.005 27.1211 137.005 26.5474V25.979H125.602H125.597Z" fill="black"/>
<path d="M132.038 17.1158V18.2948C132.038 19.0053 132.023 21.6843 136.501 23.0948L136.013 23.6737C136.013 23.6737 135.695 24.0895 135.074 23.9316C134.103 23.6158 132.15 22.7895 131.03 21.0685C129.911 22.7895 127.953 23.6158 126.981 23.9316C126.361 24.0895 126.042 23.6737 126.042 23.6737L125.554 23.0948C129.778 21.7632 129.996 19.3106 130.011 18.4369V18.3106C130.011 17.5422 130.393 17.1158 131.083 17.1158H132.033H132.038Z" fill="black"/>
<path d="M100.869 25.979C100.742 25.979 100.248 26.0211 100.248 26.5948V27.1632H111.657C111.784 27.1632 112.278 27.1211 112.278 26.5474V25.979H100.874H100.869Z" fill="black"/>
</g>
<defs>
<clipPath id="clip0_27_23">
<rect width="137" height="40" fill="white"/>
</clipPath>
</defs>
</svg>
